<svg id="account-group-outline" xmlns="http://www.w3.org/2000/svg" width="30.857" height="18" viewBox="0 0 30.857 18">
  <path id="account-group-outline-2" data-name="account-group-outline" d="M15.429,5a4.5,4.5,0,1,0,4.5,4.5,4.5,4.5,0,0,0-4.5-4.5m0,2.571A1.929,1.929,0,1,1,13.5,9.5a1.929,1.929,0,0,1,1.929-1.929M7.071,8.857a3.214,3.214,0,1,0,1.556,6.017A3.36,3.36,0,0,0,9.8,13.756,6.968,6.968,0,0,1,8.357,9.5V9.14a3.038,3.038,0,0,0-1.286-.283m16.714,0A3.038,3.038,0,0,0,22.5,9.14V9.5a6.968,6.968,0,0,1-1.44,4.256,3.544,3.544,0,0,0,.514.63,3,3,0,0,0,.656.489,3.147,3.147,0,0,0,3.111,0,3.208,3.208,0,0,0-1.556-6.017m-8.357,7.714c-3.009,0-9,1.5-9,4.5V23h18V21.071c0-3-5.991-4.5-9-4.5m-9.373.707C3.574,17.574,0,18.834,0,21.071V23H3.857V20.519a4.073,4.073,0,0,1,2.2-3.24m18.746,0a4.073,4.073,0,0,1,2.2,3.24V23h3.857V21.071c0-2.237-3.574-3.5-6.056-3.793m-9.373,1.864a13.338,13.338,0,0,1,5.439,1.286H9.99A13.338,13.338,0,0,1,15.429,19.143Z" transform="translate(0 -5)" fill="#fff"/>
</svg>
