<svg xmlns="http://www.w3.org/2000/svg" width="29.257" height="29.257" viewBox="0 0 29.257 29.257"><defs><style>.a{fill:#4a7598;}</style></defs><path class="a" d="M1774.257,1147.113a6.8,6.8,0,0,1-.2,1.463,7.775,7.775,0,0,1-.447,1.417,5.582,5.582,0,0,1-2.525,2.2,8.1,8.1,0,0,1-3.865,1.062,8.553,8.553,0,0,1-1.108-.077,7.07,7.07,0,0,1-1.2-.262c-.431-.123-.754-.215-.969-.292s-.6-.216-1.155-.431q-.832-.3-1.016-.37a19.381,19.381,0,0,1-3.634-1.724,36.067,36.067,0,0,1-9.978-9.978,19.419,19.419,0,0,1-1.725-3.634q-.07-.185-.369-1.016c-.216-.554-.354-.94-.431-1.155s-.169-.539-.292-.97a7.119,7.119,0,0,1-.262-1.2,8.559,8.559,0,0,1-.077-1.109,8.093,8.093,0,0,1,1.063-3.865,5.58,5.58,0,0,1,2.2-2.525,7.705,7.705,0,0,1,1.417-.446,6.752,6.752,0,0,1,1.463-.2,1.149,1.149,0,0,1,.447.062c.246.077.616.616,1.094,1.586.154.262.369.631.631,1.109.262.493.508.939.724,1.324q.323.6.647,1.109c.046.062.154.231.354.523a5.489,5.489,0,0,1,.447.739,1.234,1.234,0,0,1,.154.585,1.732,1.732,0,0,1-.6,1.047,8.965,8.965,0,0,1-1.279,1.14,12.992,12.992,0,0,0-1.293,1.108,1.1,1.1,0,0,0-.492,1.417c.077.184.139.323.185.431a4.754,4.754,0,0,0,.292.493c.139.231.216.37.231.4a20.674,20.674,0,0,0,8.5,8.5c.031.016.169.093.4.231a4.762,4.762,0,0,0,.492.292c.108.046.246.107.432.185a1.1,1.1,0,0,0,1.417-.493,12.917,12.917,0,0,0,1.108-1.293,8.983,8.983,0,0,1,1.14-1.279,1.731,1.731,0,0,1,1.047-.6,1.227,1.227,0,0,1,.585.154,5.548,5.548,0,0,1,.739.446c.292.2.462.308.523.355q.508.323,1.109.647c.385.216.832.462,1.324.724.477.262.847.478,1.108.631.97.477,1.509.847,1.586,1.093A1.15,1.15,0,0,1,1774.257,1147.113Z" transform="translate(-1745 -1124)"/></svg>