<svg xmlns="http://www.w3.org/2000/svg" width="39.547" height="29.257" viewBox="0 0 39.547 29.257"><defs><style>.a{fill:#4a7598;}</style></defs><path class="a" d="M1718.089,1136.36a8.112,8.112,0,0,1-2.068,5.336,14.2,14.2,0,0,1-5.667,3.884,20.955,20.955,0,0,1-7.8,1.421,23.6,23.6,0,0,1-3.884-.331,18.276,18.276,0,0,1-8.036,2.984h-.063a.606.606,0,0,1-.442-.174.687.687,0,0,1-.269-.426c0-.047-.016-.095-.016-.142a.312.312,0,0,1,.016-.126.209.209,0,0,1,.047-.126l.047-.11.079-.111.095-.11.095-.095.079-.095.521-.521q.378-.4.568-.616c.111-.142.284-.347.489-.6a4.527,4.527,0,0,0,.552-.8,7.945,7.945,0,0,0,.458-.9,12.9,12.9,0,0,1-4.31-3.678,7.867,7.867,0,0,1-1.563-4.658,8.054,8.054,0,0,1,2.083-5.336,13.851,13.851,0,0,1,5.652-3.868,21.883,21.883,0,0,1,15.6,0,14.02,14.02,0,0,1,5.667,3.868A8.112,8.112,0,0,1,1718.089,1136.36Zm8.478,5.32a7.816,7.816,0,0,1-1.579,4.657,12.628,12.628,0,0,1-4.294,3.662c.142.332.3.648.442.916a5.591,5.591,0,0,0,.552.805c.221.252.379.458.505.6a7.514,7.514,0,0,0,.569.615c.268.269.442.442.5.521l.095.095.095.095c.032.032.047.063.095.11.032.048.063.079.079.111l.048.11.047.127.016.126-.032.142a.816.816,0,0,1-.284.458.669.669,0,0,1-.49.142q-1.089-.142-1.894-.331a18.775,18.775,0,0,1-6.126-2.668,23.565,23.565,0,0,1-3.883.332,19.359,19.359,0,0,1-10.42-2.731c.853.047,1.5.079,1.942.079a24.968,24.968,0,0,0,6.82-.932,20.111,20.111,0,0,0,5.825-2.684,14.317,14.317,0,0,0,4.231-4.4,10.063,10.063,0,0,0,1.484-5.273,10.394,10.394,0,0,0-.5-3.157,12.825,12.825,0,0,1,4.5,3.694A7.86,7.86,0,0,1,1726.567,1141.681Z" transform="translate(-1687.02 -1125.72)"/></svg>