<svg xmlns="http://www.w3.org/2000/svg" width="38.335" height="22.347" viewBox="0 0 38.335 22.347">
  <g id="Group_3185" data-name="Group 3185" transform="translate(0.25 0.25)">
    <path id="community1" d="M32.861,12.193a4.381,4.381,0,1,0-4.925,0,7.389,7.389,0,0,0-2.2,1.224,10.384,10.384,0,0,0-3.9-2.137,6.018,6.018,0,1,0-5.844,0,10.384,10.384,0,0,0-3.9,2.137,7.39,7.39,0,0,0-2.2-1.224,4.384,4.384,0,1,0-4.925,0A7.452,7.452,0,0,0,0,19.2a.591.591,0,0,0,1.182,0,6.258,6.258,0,0,1,10.065-4.954,10.346,10.346,0,0,0-2.725,7.008.591.591,0,1,0,1.182,0,9.213,9.213,0,1,1,18.426,0,.591.591,0,0,0,1.181,0,10.346,10.346,0,0,0-2.725-7.008A6.258,6.258,0,0,1,36.653,19.2a.591.591,0,0,0,1.182,0A7.452,7.452,0,0,0,32.861,12.193ZM4.239,8.56a3.2,3.2,0,1,1,3.2,3.21,3.2,3.2,0,0,1-3.2-3.21Zm9.843-2.548a4.842,4.842,0,1,1,0,.012ZM27.194,8.56a3.2,3.2,0,1,1,3.2,3.2A3.2,3.2,0,0,1,27.194,8.56Z" fill="#fff" stroke="#fff" stroke-width="0.5"/>
  </g>
</svg>
