<svg xmlns="http://www.w3.org/2000/svg" width="27.098" height="46.495" viewBox="0 0 27.098 46.495">
  <path id="Path_10739" data-name="Path 10739" d="M1133.259,169.577l-5.142-.236c6.75-6.133,7.482-13.765,5.079-18.834a12.229,12.229,0,0,0-1.1-1.874,18.408,18.408,0,0,0-1-16.885c-2.672-4.453-7.563-7.007-14.145-7.386a33.462,33.462,0,0,0-9.138.763.615.615,0,0,0,.3,1.194c.159-.04,15.971-3.865,21.928,6.063a17.136,17.136,0,0,1,1.169,15.162,10.361,10.361,0,0,0-9.986-3.1c-6.037,1.292-8.066,5.346-7.4,8.791a6.4,6.4,0,0,0,7.525,5.159c3.991-.694,7.815-3.9,10.137-8.457a10.977,10.977,0,0,1,.6,1.094c2.23,4.7,1.472,11.847-5.015,17.593l-.349-5.156a.607.607,0,0,0-.655-.572.615.615,0,0,0-.573.655l.432,6.371v0c0,.01,0,.019,0,.029a.541.541,0,0,0,.01.056c0,.011,0,.022.006.034s.006.018.01.026.012.035.019.051.009.023.014.034.01.016.014.024.018.03.027.044.015.023.023.034l.006.009.011.011c.01.012.021.024.033.036s.027.026.041.038l.022.019.026.018c.017.011.034.021.051.031s.021.014.033.019l.016.006h0a.583.583,0,0,0,.059.022c.016,0,.03.011.046.014l.014,0a.594.594,0,0,0,.059.007c.013,0,.026.005.04.006l6.695.308h.029a.615.615,0,0,0,.028-1.23Zm-12.119-12.393a5.194,5.194,0,0,1-6.106-4.18c-.513-2.646.868-6.159,6.448-7.353a9.967,9.967,0,0,1,2.088-.225,9.109,9.109,0,0,1,7.1,3.378C1128.559,153.322,1124.918,156.527,1121.14,157.184Z" transform="translate(-1107.349 -124.311)" fill="#fff"/>
</svg>
