<svg xmlns="http://www.w3.org/2000/svg" width="35.001" height="35.5" viewBox="0 0 35.001 35.5">
  <g id="Group_3180" data-name="Group 3180" transform="translate(-688 -547)">
    <path id="Path_10716" data-name="Path 10716" d="M24.792,32.792H2.187A2.187,2.187,0,0,1,0,30.6V10.187A2.187,2.187,0,0,1,2.187,8H18.958V9.458H2.187a.729.729,0,0,0-.729.729V30.6a.729.729,0,0,0,.729.729h22.6Z" transform="translate(688 544.833)" fill="#666"/>
    <rect id="Rectangle_2628" data-name="Rectangle 2628" width="14" height="2" transform="translate(698.501 580.5)" fill="#666"/>
    <rect id="Rectangle_2629" data-name="Rectangle 2629" width="1" height="5" transform="translate(700.501 576.5)" fill="#666"/>
    <rect id="Rectangle_2630" data-name="Rectangle 2630" width="1" height="5" transform="translate(709.5 576.5)" fill="#666"/>
    <rect id="Rectangle_2631" data-name="Rectangle 2631" width="9" height="2" transform="translate(688.501 571.5)" fill="#666"/>
    <path id="Path_10717" data-name="Path 10717" d="M22.937,30.958H20.021a.729.729,0,0,1-.729-.729v-1.8a7.219,7.219,0,0,1-1.181-.49l-1.272,1.272a.729.729,0,0,1-1.031,0l-2.062-2.062a.729.729,0,0,1,0-1.031l1.272-1.272a7.188,7.188,0,0,1-.491-1.181h-1.8A.729.729,0,0,1,12,22.937V20.021a.729.729,0,0,1,.729-.729h1.8a7.188,7.188,0,0,1,.491-1.181l-1.272-1.272a.729.729,0,0,1,0-1.031l2.062-2.062a.729.729,0,0,1,1.031,0l1.272,1.272a7.188,7.188,0,0,1,1.181-.491v-1.8A.729.729,0,0,1,20.021,12h2.917a.729.729,0,0,1,.729.729v1.8a7.188,7.188,0,0,1,1.181.491l1.272-1.272a.729.729,0,0,1,1.031,0l2.062,2.062a.729.729,0,0,1,0,1.031L27.94,18.111a7.188,7.188,0,0,1,.491,1.181h1.8a.729.729,0,0,1,.729.729v2.917a.729.729,0,0,1-.729.729h-1.8a7.188,7.188,0,0,1-.491,1.181l1.272,1.272a.729.729,0,0,1,0,1.031l-2.062,2.062a.729.729,0,0,1-1.031,0l-1.272-1.272a7.219,7.219,0,0,1-1.181.49v1.8A.729.729,0,0,1,22.937,30.958ZM20.75,29.5h1.458V27.874a.729.729,0,0,1,.567-.712,5.77,5.77,0,0,0,1.8-.749.729.729,0,0,1,.9.1l1.151,1.151,1.031-1.031-1.151-1.151a.729.729,0,0,1-.1-.9,5.8,5.8,0,0,0,.752-1.8.729.729,0,0,1,.707-.567H29.5V20.75H27.874a.729.729,0,0,1-.711-.567,5.8,5.8,0,0,0-.749-1.8.729.729,0,0,1,.1-.9l1.151-1.151-1.031-1.031-1.151,1.151a.729.729,0,0,1-.9.1,5.785,5.785,0,0,0-1.8-.749.729.729,0,0,1-.567-.712V13.458H20.75v1.626a.729.729,0,0,1-.567.712,5.785,5.785,0,0,0-1.8.749.729.729,0,0,1-.9-.1l-1.151-1.151-1.031,1.031,1.151,1.151a.729.729,0,0,1,.1.9,5.8,5.8,0,0,0-.752,1.8.729.729,0,0,1-.707.567H13.458v1.458h1.626a.729.729,0,0,1,.711.567,5.8,5.8,0,0,0,.749,1.8.729.729,0,0,1-.1.9l-1.151,1.151,1.031,1.031,1.151-1.151a.729.729,0,0,1,.9-.1,5.77,5.77,0,0,0,1.8.749.729.729,0,0,1,.567.712Z" transform="translate(684.75 543.75)" fill="#666"/>
    <path id="Path_10718" data-name="Path 10718" d="M23.917,26.833a2.917,2.917,0,1,1,2.917-2.917A2.917,2.917,0,0,1,23.917,26.833Zm0-4.375a1.458,1.458,0,1,0,1.458,1.458A1.458,1.458,0,0,0,23.917,22.458Z" transform="translate(682.313 541.313)" fill="#666"/>
    <path id="Path_10719" data-name="Path 10719" d="M42.36,44.482a2.105,2.105,0,0,1-1.5-.621l-5.647-5.646a.729.729,0,0,1,0-1.031l1.969-1.969a.75.75,0,0,1,1.031,0l5.647,5.647a2.121,2.121,0,0,1,0,3h0A2.105,2.105,0,0,1,42.36,44.482ZM36.76,37.7l5.131,5.13a.677.677,0,0,0,.936,0,.662.662,0,0,0,0-.936L37.7,36.763Z" transform="translate(678.521 537.519)" fill="#666"/>
    <rect id="Rectangle_2632" data-name="Rectangle 2632" width="1.458" height="4.125" transform="translate(711.548 571.578) rotate(-45)" fill="#666"/>
    <rect id="Rectangle_2633" data-name="Rectangle 2633" width="3.094" height="1.458" transform="translate(715.922 577.109) rotate(-45)" fill="#666"/>
    <path id="Path_10720" data-name="Path 10720" d="M40.4,7.292H30.187A2.187,2.187,0,0,1,28,5.1V2.187A2.188,2.188,0,0,1,30.188,0H40.4a2.187,2.187,0,0,1,2.188,2.187V5.1A2.187,2.187,0,0,1,40.4,7.292ZM30.187,1.458a.729.729,0,0,0-.729.729V5.1a.729.729,0,0,0,.729.729H40.4a.729.729,0,0,0,.729-.729V2.187a.729.729,0,0,0-.729-.729Z" transform="translate(680.417 547)" fill="#666"/>
    <path id="Path_10721" data-name="Path 10721" d="M38.324,13.891l-1.031-1.031,1.974-1.974V9h1.458v2.187a.729.729,0,0,1-.214.515Z" transform="translate(677.899 544.563)" fill="#666"/>
    <rect id="Rectangle_2634" data-name="Rectangle 2634" width="1" height="2" transform="translate(711.5 549.5)" fill="#666"/>
    <rect id="Rectangle_2635" data-name="Rectangle 2635" width="6" height="2" transform="translate(714.5 549.5)" fill="#666"/>
    <path id="Path_10722" data-name="Path 10722" d="M46.729,33.875H46V12h1.458V33.146A.729.729,0,0,1,46.729,33.875Z" transform="translate(675.542 543.75)" fill="#666"/>
    <rect id="Rectangle_2636" data-name="Rectangle 2636" width="4" height="2" transform="translate(718.5 571.5)" fill="#666"/>
    <path id="Path_10723" data-name="Path 10723" d="M5.458,15.646H4V14.187A2.187,2.187,0,0,1,6.187,12H7.646v1.458H6.187a.729.729,0,0,0-.729.729Z" transform="translate(686.917 543.75)" fill="#666"/>
    <rect id="Rectangle_2637" data-name="Rectangle 2637" width="2" height="2" transform="translate(690.501 560.5)" fill="#666"/>
  </g>
</svg>
