<svg xmlns="http://www.w3.org/2000/svg" width="35.086" height="34.5" viewBox="0 0 35.086 34.5">
  <g id="Group_3181" data-name="Group 3181" transform="translate(-334.001 -547)">
    <path id="Path_10713" data-name="Path 10713" d="M42.466,4.754h-.585V3.585A.585.585,0,0,0,41.3,3H31.356a.585.585,0,0,0-.585.585V5.76L26.093,4.579V4.169a.585.585,0,0,0-.585-.585H22.585A.585.585,0,0,0,22,4.169V8.847a.585.585,0,0,0,.585.585h2.924a.578.578,0,0,0,.544-.38l4.719,5.6v2.386a.585.585,0,0,0,.585.585H41.3a.585.585,0,0,0,.585-.585V13.525h.585A2.924,2.924,0,0,0,45.39,10.6V7.678A2.924,2.924,0,0,0,42.466,4.754ZM24.924,8.263H23.169V4.754h1.754Zm5.847,4.567L26.093,7.286v-1.5l4.678,1.181Zm9.941-7.491H34.28V6.508h6.432v9.941H31.941V6.508H33.11V5.339H31.941V4.169h8.771ZM44.22,10.6a1.76,1.76,0,0,1-1.754,1.754h-.585V5.924h.585A1.76,1.76,0,0,1,44.22,7.678Z" transform="translate(323.697 544)" fill="#666"/>
    <path id="Path_10714" data-name="Path 10714" d="M20.678,32.339a2.339,2.339,0,1,0-2.339,2.339A2.339,2.339,0,0,0,20.678,32.339Zm-3.508,0a1.169,1.169,0,1,1,1.169,1.169A1.169,1.169,0,0,1,17.169,32.339Z" transform="translate(326.189 532.788)" fill="#666"/>
    <path id="Path_10715" data-name="Path 10715" d="M36.514,42.5a14.442,14.442,0,0,1-2.82-.333,15.923,15.923,0,0,0-3.628-.363c-.207,0-.4,0-.585.008v-3.75h1.169a3.512,3.512,0,0,0,3.508-3.508.585.585,0,0,0-.585-.585H31.821a3.512,3.512,0,0,0-3.508,3.508v.6a2.893,2.893,0,0,0-1.754-.6H24.219a.585.585,0,0,0-.585.585,2.927,2.927,0,0,0,2.924,2.924h1.754v.891a16.2,16.2,0,0,0-1.871.292,14.778,14.778,0,0,1-3.4.34,14.74,14.74,0,0,1-3.4-.34,15.66,15.66,0,0,0-2.357-.327,5.249,5.249,0,0,1,3.333-4.031.585.585,0,0,0,0-1.095,6.426,6.426,0,0,0-7.517,2.34V35.2c.154.047.312.1.468.157a2.593,2.593,0,0,0,2.186.126,2.623,2.623,0,0,0,1-2,3.549,3.549,0,0,1,.275-1,3.376,3.376,0,0,1,.705-.7A2.647,2.647,0,0,0,19,29.87a2.647,2.647,0,0,0-1.255-1.907,3.376,3.376,0,0,1-.705-.7,3.525,3.525,0,0,1-.275-1,2.641,2.641,0,0,0-1-2,2.588,2.588,0,0,0-2.186.126,3.679,3.679,0,0,1-1.053.27,3.679,3.679,0,0,1-1.053-.27,2.593,2.593,0,0,0-2.186-.126,2.628,2.628,0,0,0-1,2,3.549,3.549,0,0,1-.275,1,3.376,3.376,0,0,1-.705.7A2.647,2.647,0,0,0,6.048,29.87,2.647,2.647,0,0,0,7.3,31.778a3.376,3.376,0,0,1,.705.7,3.525,3.525,0,0,1,.275,1,2.631,2.631,0,0,0,1,2,1.533,1.533,0,0,0,.786.2,4.373,4.373,0,0,0,1.4-.327c.158-.056.316-.11.468-.157v3.852A6.426,6.426,0,0,0,6.677,36.3a6.329,6.329,0,0,0-1.61.207.585.585,0,0,0,0,1.131,5.248,5.248,0,0,1,3.287,2.579,6.411,6.411,0,0,0-5.041-.785.585.585,0,0,0,0,1.131,5.235,5.235,0,0,1,2.666,1.667l-.363-.071A15.572,15.572,0,0,0,2.6,41.808a.643.643,0,0,0-.423.166A.585.585,0,0,0,2,42.393v3.266a.585.585,0,0,0,.585.585H36.5a.585.585,0,0,0,.585-.585V43.08A.585.585,0,0,0,36.514,42.5Zm-9.956-2.684A1.758,1.758,0,0,1,24.9,38.642h1.654a1.758,1.758,0,0,1,1.654,1.169Zm5.263-4.678h1.1a2.344,2.344,0,0,1-2.265,1.754h-1.1A2.344,2.344,0,0,1,31.821,35.134ZM18.372,37.473q.188,0,.373.012A6.423,6.423,0,0,0,16.109,41.8h-.077a16.012,16.012,0,0,0-2.869.22,5.267,5.267,0,0,1,5.208-4.547ZM11.08,34.256c-.462.162-.986.346-1.212.216-.245-.142-.347-.7-.437-1.2A4.293,4.293,0,0,0,9.019,31.9a4.125,4.125,0,0,0-.967-1.012c-.409-.344-.837-.7-.837-1.01s.425-.666.837-1.01a4.111,4.111,0,0,0,.964-1.015,4.269,4.269,0,0,0,.413-1.381c.09-.494.192-1.053.437-1.2a.416.416,0,0,1,.207-.044,3.65,3.65,0,0,1,1,.26,4.448,4.448,0,0,0,1.446.336,4.448,4.448,0,0,0,1.444-.336c.461-.163.985-.346,1.212-.216.245.142.347.7.437,1.2a4.293,4.293,0,0,0,.416,1.381A4.125,4.125,0,0,0,17,28.86c.409.344.837.7.837,1.01s-.425.666-.837,1.01a4.111,4.111,0,0,0-.967,1.012,4.269,4.269,0,0,0-.413,1.381c-.09.494-.192,1.053-.437,1.2-.227.129-.75-.054-1.212-.216a4.448,4.448,0,0,0-1.446-.336A4.448,4.448,0,0,0,11.08,34.256Zm-3.535,3.29a5.274,5.274,0,0,1,4.373,4.715,13.026,13.026,0,0,1-1.43.189,5.471,5.471,0,0,0-.373-.572,6.429,6.429,0,0,0-2.569-4.335ZM9.1,42.472c.008.009.014.021.022.03H9.016c-.556,0-1.034-.018-1.462-.053a6.4,6.4,0,0,0-1.76-1.982,5.221,5.221,0,0,1,3.309,2Zm26.811,2.6H3.168V43a14.413,14.413,0,0,1,2.222.308,16.941,16.941,0,0,0,1.75.278,17.72,17.72,0,0,0,1.875.085c.439,0,.829-.012,1.173-.03a15.355,15.355,0,0,0,2.45-.332,14.8,14.8,0,0,1,3.394-.339c.211.005.4,0,.581.006a14.28,14.28,0,0,1,2.807.333,15.912,15.912,0,0,0,3.625.363,15.911,15.911,0,0,0,3.625-.363A14.34,14.34,0,0,1,28.93,43c.336-.018.712-.029,1.14-.029a14.79,14.79,0,0,1,3.4.34,15.587,15.587,0,0,0,2.449.333Z" transform="translate(332.004 535.256)" fill="#666"/>
    <rect id="Rectangle_2623" data-name="Rectangle 2623" width="1" height="1" transform="translate(344.084 555)" fill="#666"/>
    <rect id="Rectangle_2624" data-name="Rectangle 2624" width="1" height="2" transform="translate(342.084 553)" fill="#666"/>
    <rect id="Rectangle_2625" data-name="Rectangle 2625" width="1" height="1" transform="translate(343.084 551)" fill="#666"/>
    <rect id="Rectangle_2626" data-name="Rectangle 2626" width="1" height="1" transform="translate(341.084 549)" fill="#666"/>
    <rect id="Rectangle_2627" data-name="Rectangle 2627" width="1" height="1" transform="translate(341.084 557)" fill="#666"/>
  </g>
</svg>
