<svg xmlns="http://www.w3.org/2000/svg" width="28.061" height="23.384" viewBox="0 0 28.061 23.384">
  <g id="goods" transform="translate(-0.47 -2.808)">
    <path id="Path_10731" data-name="Path 10731" d="M28.466,15.622l-3.158-5.613a.5.5,0,0,0-.436-.256H21.806l1.455-5.431a.5.5,0,0,0-.354-.612L19.6,2.825a.5.5,0,0,0-.611.354L17.772,7.721a3.673,3.673,0,0,0-3.8-1.133v-1.2a.5.5,0,0,0-.5-.5H7.638a.5.5,0,0,0-.5.5V9.753H4.128a.5.5,0,0,0-.436.256L.534,15.622a.5.5,0,0,0,.436.745H3.8v9.325a.5.5,0,0,0,.5.5h20a.5.5,0,0,0,.5-.5V16.367h3.227a.5.5,0,0,0,.435-.745ZM19.827,3.92l2.338.626-1.4,5.207H18.707a3.825,3.825,0,0,0-.213-.863Zm-2.12,5.833H12.188a2.8,2.8,0,0,1,5.519,0ZM8.138,5.886H12.97V7.013a3.8,3.8,0,0,0-1.781,2.74H8.138ZM4.421,10.753h13.1l-2.6,4.614H1.825ZM4.8,16.367h10.42a.5.5,0,0,0,.436-.255l2.223-3.95v13.03H4.8Zm19,8.825H18.882V12.162l2.222,3.95a.5.5,0,0,0,.436.255h2.265v8.825Zm-1.973-9.825-2.595-4.614H24.58l2.595,4.614H21.831Z" fill="#333"/>
    <path id="Path_10732" data-name="Path 10732" d="M10.883,19.994h-4.3a.5.5,0,0,0-.5.5v2.917a.5.5,0,0,0,.5.5h4.3a.5.5,0,0,0,.5-.5V20.494A.5.5,0,0,0,10.883,19.994Zm-.5,2.917h-3.3V20.994h3.3Z" fill="#333"/>
  </g>
</svg>
