<svg xmlns="http://www.w3.org/2000/svg" width="26.078" height="21.565" viewBox="0 0 26.078 21.565">
  <path id="home" d="M29.351,17.109V11.671H24.815v1.979L20.04,10,7.07,19.92l2.719,3.52,1.325-1.024v9.15h7.625V24.849H21.58v6.716h7.371v-9.15L30.33,23.44l2.819-3.52L29.3,17.109ZM27.4,30.148H23.136V23.432H17.321v6.716H12.7V21.337l7.363-5.676,7.363,5.676v8.811Zm2.572-8.788-9.935-7.648L10.1,21.36l-.863-1.117,10.783-8.3,6.331,4.829V13.219h1.463v4.675l3.081,2.349Z" transform="translate(-7.07 -10)" fill="#fff"/>
</svg>
