<svg xmlns="http://www.w3.org/2000/svg" width="22" height="22" viewBox="0 0 22 22">
  <path id="Icon_awesome-youtube-square" data-name="Icon awesome-youtube-square" d="M9.173,10.6l4.675,2.657L9.173,15.917ZM22,4.607V21.893a2.358,2.358,0,0,1-2.357,2.357H2.357A2.358,2.358,0,0,1,0,21.893V4.607A2.358,2.358,0,0,1,2.357,2.25H19.643A2.358,2.358,0,0,1,22,4.607Zm-2.062,8.658a23.6,23.6,0,0,0-.373-4.331,2.241,2.241,0,0,0-1.581-1.591A52.733,52.733,0,0,0,11,6.964a52.733,52.733,0,0,0-6.983.378A2.241,2.241,0,0,0,2.436,8.933a23.567,23.567,0,0,0-.373,4.331A23.6,23.6,0,0,0,2.436,17.6a2.209,2.209,0,0,0,1.581,1.567A53.42,53.42,0,0,0,11,19.536a52.733,52.733,0,0,0,6.983-.378,2.209,2.209,0,0,0,1.581-1.567,23.524,23.524,0,0,0,.373-4.326Z" transform="translate(0 -2.25)" fill="#fff"/>
</svg>
