<svg xmlns="http://www.w3.org/2000/svg" width="22.987" height="23.5" viewBox="0 0 22.987 23.5">
  <path id="Icon_material-settings" data-name="Icon material-settings" d="M22.281,15.078A8.573,8.573,0,0,0,22.358,14a8.573,8.573,0,0,0-.077-1.078L24.6,11.107a.555.555,0,0,0,.132-.7L22.534,6.6a.553.553,0,0,0-.671-.242l-2.739,1.1a8.037,8.037,0,0,0-1.859-1.078l-.418-2.915A.536.536,0,0,0,16.308,3h-4.4a.536.536,0,0,0-.539.462l-.418,2.915A8.451,8.451,0,0,0,9.092,7.455l-2.739-1.1a.537.537,0,0,0-.671.242L3.482,10.4a.542.542,0,0,0,.132.7l2.321,1.815A8.724,8.724,0,0,0,5.858,14a8.724,8.724,0,0,0,.077,1.078L3.614,16.893a.555.555,0,0,0-.132.7l2.2,3.806a.553.553,0,0,0,.671.242l2.739-1.1a8.037,8.037,0,0,0,1.859,1.078l.418,2.915a.536.536,0,0,0,.539.462h4.4a.536.536,0,0,0,.539-.462l.418-2.915a8.451,8.451,0,0,0,1.859-1.078l2.739,1.1a.537.537,0,0,0,.671-.242l2.2-3.806a.555.555,0,0,0-.132-.7l-2.321-1.815ZM14.108,17.85A3.85,3.85,0,1,1,17.958,14,3.854,3.854,0,0,1,14.108,17.85Z" transform="translate(-2.609 -2.25)" fill="none" stroke="#fff" stroke-width="1.5"/>
</svg>
