<svg xmlns="http://www.w3.org/2000/svg" width="22" height="22" viewBox="0 0 22 22">
  <path id="Icon_awesome-facebook-square" data-name="Icon awesome-facebook-square" d="M19.643,2.25H2.357A2.357,2.357,0,0,0,0,4.607V21.893A2.357,2.357,0,0,0,2.357,24.25H9.1V16.77H6V13.25H9.1V10.567c0-3.052,1.817-4.738,4.6-4.738a18.743,18.743,0,0,1,2.726.238v3H14.888a1.76,1.76,0,0,0-1.985,1.9V13.25H16.28l-.54,3.52H12.9v7.48h6.74A2.357,2.357,0,0,0,22,21.893V4.607A2.357,2.357,0,0,0,19.643,2.25Z" transform="translate(0 -2.25)" fill="#fff"/>
</svg>
