<svg xmlns="http://www.w3.org/2000/svg" width="21" height="16.008" viewBox="0 0 21 16.008">
  <path id="Icon_metro-profile" data-name="Icon metro-profile" d="M23.07,9.855h-1.4v-2.1l-2.887-.044L18.8,9.855H10.124l.059-2.143-2.827.044V9.9L5.927,9.855A1.429,1.429,0,0,0,4.5,11.284v10a1.429,1.429,0,0,0,1.429,1.429H23.07A1.429,1.429,0,0,0,24.5,21.284v-10A1.429,1.429,0,0,0,23.07,9.855ZM19.5,8.426h1.429v2.857H19.5Zm-9.286,4.866a1.859,1.859,0,0,1,1.563,2.054A1.859,1.859,0,0,1,10.213,17.4,1.859,1.859,0,0,1,8.65,15.346a1.859,1.859,0,0,1,1.563-2.054ZM8.07,8.426H9.5v2.857H8.07ZM7.118,19.818s.169-1.359.554-1.615a5.478,5.478,0,0,1,1.493-.427s.719.768,1.024.768,1.024-.768,1.024-.768a5.461,5.461,0,0,1,1.494.427c.452.3.565,1.615.565,1.615H7.118Zm14.524-.677H15.213v-.714h6.429Zm0-1.429H15.213V17h6.429Zm0-1.429H15.213v-.714h6.429Zm0-1.429H15.213v-.714h6.429Z" transform="translate(-3.999 -7.204)" fill="none" stroke="#fff" stroke-width="1"/>
</svg>
