<svg xmlns="http://www.w3.org/2000/svg" width="14.381" height="15.023" viewBox="0 0 14.381 15.023"><g transform="translate(-78.266 -58.991)"><g transform="translate(78.266 67.644)"><g transform="translate(0 0)"><path d="M89.878,581.619q.276.843.55,1.686l.875,2.68c.068.207.148.414.2.627-.007-.051-.013-.1-.022-.154a.212.212,0,0,1,0,.065c.007-.051.013-.1.022-.154a.179.179,0,0,1-.012.04c.02-.046.04-.093.058-.139a.155.155,0,0,1-.02.036c.03-.04.06-.078.091-.118a.222.222,0,0,1-.045.043l.118-.091a.168.168,0,0,1-.038.02c.046-.02.093-.04.139-.058a.183.183,0,0,1-.043.01c.051-.007.1-.013.154-.022-.121.007-.242,0-.363,0h-12c-.166,0-.332,0-.5,0a.364.364,0,0,1-.043,0c.051.007.1.013.154.022a.2.2,0,0,1-.043-.01c.046.02.093.04.139.058a.211.211,0,0,1-.038-.02c.04.03.078.06.118.091a.276.276,0,0,1-.045-.043c.03.04.06.078.091.118a.155.155,0,0,1-.02-.036c.02.047.04.093.058.139a.179.179,0,0,1-.012-.04c.007.051.013.1.022.154a.281.281,0,0,1,0-.065c-.007.051-.013.1-.022.154.045-.172.111-.343.166-.512.128-.393.257-.788.385-1.181q.438-1.341.877-2.683c.066-.206.134-.41.2-.615a.586.586,0,0,0-.4-.715.6.6,0,0,0-.715.4c-.068.211-.138.421-.206.632l-.473,1.446L78.713,585l-.363,1.113c-.02.06-.041.118-.058.177a.773.773,0,0,0,.736.962h.025c.153,0,.3,0,.456,0H91.886a.762.762,0,0,0,.557-.245.784.784,0,0,0,.176-.728c-.06-.214-.139-.424-.207-.637-.159-.486-.317-.97-.476-1.456q-.261-.8-.524-1.605l-.363-1.111c-.018-.053-.035-.108-.053-.161a.607.607,0,0,0-.267-.346.579.579,0,0,0-.851.655Z" transform="translate(-78.266 -580.884)" fill="#656565"/></g></g><g transform="translate(80.414 58.991)"><g transform="translate(0 0)"><path d="M216.73,64.042a4.516,4.516,0,0,1-.041.6c.007-.051.013-.1.022-.154A6.086,6.086,0,0,1,216.279,66c.02-.046.04-.093.058-.139a10.733,10.733,0,0,1-1.4,2.323c.03-.04.06-.078.091-.118a17.268,17.268,0,0,1-2.409,2.525c-.061.053-.123.1-.186.156h.821a15.7,15.7,0,0,1-1.786-1.713q-.428-.47-.817-.972c.03.04.06.078.091.118a10.613,10.613,0,0,1-1.4-2.318c.02.046.04.093.058.139a6.009,6.009,0,0,1-.428-1.512c.007.051.013.1.022.154a4.593,4.593,0,0,1,0-1.2c-.007.051-.013.1-.022.154a4.459,4.459,0,0,1,.312-1.141c-.02.046-.04.093-.058.139a4.5,4.5,0,0,1,.585-1c-.03.04-.06.078-.091.118a4.538,4.538,0,0,1,.8-.8l-.118.091a4.568,4.568,0,0,1,1-.585c-.046.02-.093.04-.139.058a4.46,4.46,0,0,1,1.141-.312c-.051.007-.1.013-.154.022a4.534,4.534,0,0,1,1.2,0c-.051-.007-.1-.013-.154-.022a4.46,4.46,0,0,1,1.141.312c-.046-.02-.093-.04-.139-.058a4.5,4.5,0,0,1,1,.585l-.118-.091a4.539,4.539,0,0,1,.8.8c-.03-.04-.06-.078-.091-.118a4.568,4.568,0,0,1,.585,1c-.02-.046-.04-.093-.058-.139a4.459,4.459,0,0,1,.312,1.141c-.007-.051-.013-.1-.022-.154a4.535,4.535,0,0,1,.04.6.58.58,0,0,0,1.161,0,5.047,5.047,0,0,0-4.553-5.022,4.87,4.87,0,0,0-2.371.337,5.056,5.056,0,0,0-3.056,3.588,5.433,5.433,0,0,0,.176,2.852,9.775,9.775,0,0,0,1.462,2.719,17.515,17.515,0,0,0,1.768,2.038c.34.337.691.665,1.061.968.017.015.035.028.053.043a.621.621,0,0,0,.41.171.658.658,0,0,0,.41-.171,15.563,15.563,0,0,0,1.5-1.416,17.411,17.411,0,0,0,1.37-1.633,10.519,10.519,0,0,0,1.132-1.882,6.316,6.316,0,0,0,.635-2.592.58.58,0,0,0-1.161,0Z" transform="translate(-207.797 -58.991)" fill="#656565"/></g></g><g transform="translate(83.679 62.26)"><g transform="translate(0 0)"><path d="M407.078,257.9a1.285,1.285,0,0,1-.01.161c.007-.051.013-.1.022-.154a1.235,1.235,0,0,1-.081.3c.02-.046.04-.093.058-.139a1.227,1.227,0,0,1-.153.264c.03-.04.06-.078.091-.118a1.246,1.246,0,0,1-.229.229l.118-.091a1.347,1.347,0,0,1-.264.153c.046-.02.093-.04.139-.058a1.279,1.279,0,0,1-.3.081c.051-.007.1-.013.154-.022a1.307,1.307,0,0,1-.322,0c.051.007.1.013.154.022a1.236,1.236,0,0,1-.3-.081c.046.02.093.04.139.058a1.227,1.227,0,0,1-.264-.153l.118.091a1.246,1.246,0,0,1-.229-.229c.03.04.06.078.091.118a1.347,1.347,0,0,1-.153-.264c.02.046.04.093.058.139a1.276,1.276,0,0,1-.081-.3c.007.051.013.1.022.154a1.307,1.307,0,0,1,0-.322c-.007.051-.013.1-.022.154a1.234,1.234,0,0,1,.081-.3c-.02.046-.04.093-.058.139a1.228,1.228,0,0,1,.153-.264c-.03.04-.06.078-.091.118a1.246,1.246,0,0,1,.229-.229l-.118.091a1.345,1.345,0,0,1,.264-.153c-.046.02-.093.04-.139.058a1.278,1.278,0,0,1,.3-.081c-.051.007-.1.013-.154.022a1.307,1.307,0,0,1,.322,0c-.051-.007-.1-.013-.154-.022a1.235,1.235,0,0,1,.3.081c-.046-.02-.093-.04-.139-.058a1.226,1.226,0,0,1,.264.153l-.118-.091a1.246,1.246,0,0,1,.229.229c-.03-.04-.06-.078-.091-.118a1.347,1.347,0,0,1,.153.264c-.02-.046-.04-.093-.058-.139a1.277,1.277,0,0,1,.081.3c-.007-.051-.013-.1-.022-.154a1.325,1.325,0,0,1,.01.161.58.58,0,0,0,1.161,0,1.769,1.769,0,0,0-.31-1,1.878,1.878,0,0,0-.894-.681,1.769,1.769,0,0,0-1.913.512,1.973,1.973,0,0,0-.328.554,1.783,1.783,0,0,0,.138,1.527,1.757,1.757,0,0,0,.745.685,1.874,1.874,0,0,0,1.167.143,1.717,1.717,0,0,0,.957-.567,1.836,1.836,0,0,0,.441-1.171.586.586,0,0,0-.58-.58A.592.592,0,0,0,407.078,257.9Z" transform="translate(-404.68 -256.121)" fill="#656565"/></g></g></g></svg>