<svg xmlns="http://www.w3.org/2000/svg" width="19.698" height="19.698" viewBox="0 0 19.698 19.698">
  <g id="Group_2171" data-name="Group 2171" transform="translate(-337.45 -51.45)">
    <path id="Path_10390" data-name="Path 10390" d="M145.178,147.355a2.178,2.178,0,1,1,2.178-2.178A2.18,2.18,0,0,1,145.178,147.355Zm0-3.555a1.378,1.378,0,1,0,1.378,1.378A1.379,1.379,0,0,0,145.178,143.8Z" transform="translate(202.122 -83.878)" fill="#f3f4f6" stroke="#fff" stroke-width="0.1"/>
    <path id="Path_10391" data-name="Path 10391" d="M16.8,26.6a.477.477,0,0,1-.477-.477V24.045l-.33-.037a7.267,7.267,0,0,1-6.4-6.4l-.037-.33H7.477a.477.477,0,1,1,0-.953H9.553l.037-.33a7.267,7.267,0,0,1,6.4-6.4l.33-.037V7.477a.477.477,0,1,1,.953,0V9.553l.33.037a7.267,7.267,0,0,1,6.4,6.4l.037.33h2.077a.477.477,0,1,1,0,.953H24.045l-.037.33a7.267,7.267,0,0,1-6.4,6.4l-.33.037v2.077A.477.477,0,0,1,16.8,26.6Zm0-16.1a6.3,6.3,0,1,0,6.3,6.3A6.31,6.31,0,0,0,16.8,10.5Z" transform="translate(330.5 44.5)" fill="#f3f4f6" stroke="#fff" stroke-width="0.1"/>
  </g>
</svg>
