<svg xmlns="http://www.w3.org/2000/svg" width="14.235" height="15.892" viewBox="0 0 14.235 15.892">
  <g id="signin1" transform="translate(-9.465 -956.983)">
    <path id="Path_10692" data-name="Path 10692" d="M18.731,5a.505.505,0,0,0,.053,1.009h3.533V19.128H18.783a.5.5,0,1,0,0,1.009h4.038a.5.5,0,0,0,.5-.5V5.5a.5.5,0,0,0-.5-.5h-4.09ZM15.392,8.356a.5.5,0,0,0-.315.878l3.081,2.828H10.319a.505.505,0,0,0,.053,1.009h7.786l-3.081,2.823a.5.5,0,1,0,.683.741l4.038-3.7a.5.5,0,0,0,0-.741l-4.038-3.7a.5.5,0,0,0-.368-.137Z" transform="translate(0 952.362)" fill="#fff" stroke="#fff" stroke-width="0.75"/>
  </g>
</svg>
