<svg xmlns="http://www.w3.org/2000/svg" width="24.34" height="25.028" viewBox="0 0 24.34 25.028">
  <g id="Group_3186" data-name="Group 3186" transform="translate(-1483.714 -374.847)">
    <g id="map1" transform="translate(1483.964 375.097)">
      <path id="Path_10777" data-name="Path 10777" d="M30.441,19.467l-4.087-1.858a.681.681,0,1,0-.564,1.24l3.688,1.677V31.971l-6.13-2.786V22.812a.681.681,0,0,0-1.362,0v6.373l-6.13,2.786V23.493a.681.681,0,1,0-1.362,0v8.478l-6.13-2.787V17.739l3.124,1.42a.681.681,0,1,0,.563-1.24L7.963,16.062a.681.681,0,0,0-.963.62V29.623a.681.681,0,0,0,.4.62l7.492,3.406c.01,0,.021,0,.032.007a.678.678,0,0,0,.249.054h0a.676.676,0,0,0,.25-.054c.01,0,.021,0,.031-.007l7.211-3.278,7.211,3.278a.681.681,0,0,0,.963-.62V20.087a.681.681,0,0,0-.4-.62Z" transform="translate(-7 -9.189)" fill="#fff" stroke="#fff" stroke-width="0.5"/>
      <path id="Path_10778" data-name="Path 10778" d="M20.741,20.9a.681.681,0,0,0,.963,0,30.744,30.744,0,0,0,4.191-5.317,12.653,12.653,0,0,0,.767-1.508,5.727,5.727,0,0,0,.493-2.144,5.933,5.933,0,0,0-11.865,0c0,1.352.767,3.108,2.281,5.22a34.032,34.032,0,0,0,3.17,3.748Zm.482-13.546a4.579,4.579,0,0,1,4.57,4.577,4.476,4.476,0,0,1-.388,1.62,11.457,11.457,0,0,1-.683,1.34,28.356,28.356,0,0,1-3.5,4.541,32.914,32.914,0,0,1-2.545-3.075c-1.325-1.848-2.025-3.378-2.025-4.426a4.579,4.579,0,0,1,4.57-4.577Z" transform="translate(-9.643 -6)" fill="#fff" stroke="#fff" stroke-width="0.5"/>
      <path id="Path_10779" data-name="Path 10779" d="M22.725,16.449A2.725,2.725,0,1,0,20,13.725,2.725,2.725,0,0,0,22.725,16.449Zm0-4.087a1.362,1.362,0,1,1-1.362,1.362A1.362,1.362,0,0,1,22.725,12.362Z" transform="translate(-11.145 -7.594)" fill="#fff" stroke="#fff" stroke-width="0.5"/>
    </g>
  </g>
</svg>
