<svg xmlns="http://www.w3.org/2000/svg" width="24.892" height="20.25" viewBox="0 0 24.892 20.25">
  <g id="Group_2473" data-name="Group 2473" transform="translate(0.13 0.125)">
    <path id="Path_1800" data-name="Path 1800" d="M24.413,11.21A.768.768,0,0,0,23.8,10.9H18.837L14.459,4.336a.768.768,0,1,0-1.275.852l3.84,5.722H7.57l3.84-5.722a.768.768,0,1,0-1.275-.852L5.719,10.9H.758a.768.768,0,0,0-.768.991l2.834,9.331A3.84,3.84,0,0,0,6.5,23.959h11.52A3.84,3.84,0,0,0,21.7,21.225l2.865-9.331A.768.768,0,0,0,24.413,11.21Zm-4.147,9.569a2.3,2.3,0,0,1-2.212,1.644H6.533a2.3,2.3,0,0,1-2.243-1.644l-2.5-8.341H4.7L3.93,13.552A.768.768,0,1,0,5.2,14.4l1.344-1.966H18.008L19.313,14.4a.768.768,0,0,0,1.275-.852l-.768-1.114h2.911Z" transform="translate(0.043 -3.959)" fill="#fff" stroke="#fff" stroke-width="0.25"/>
    <path id="Path_1801" data-name="Path 1801" d="M19.52,24H8.768a.768.768,0,0,0,0,1.536H19.52a.768.768,0,0,0,0-1.536Z" transform="translate(-1.823 -8.608)" fill="#fff" stroke="#fff" stroke-width="0.25"/>
    <path id="Path_1802" data-name="Path 1802" d="M10.768,21.536H17.68a.768.768,0,0,0,0-1.536H10.768a.768.768,0,1,0,0,1.536Z" transform="translate(-2.287 -7.68)" fill="#fff" stroke="#fff" stroke-width="0.25"/>
  </g>
</svg>
