<svg xmlns="http://www.w3.org/2000/svg" width="20.795" height="15.205" viewBox="0 0 20.795 15.205">
  <path id="download_3_" data-name="download (3)" d="M36.678,42.725H17.121A.621.621,0,0,1,16.5,42.1V28.135h0a.621.621,0,0,1,.05-.239.649.649,0,0,1,.137-.2l.025-.022a.618.618,0,0,1,.391-.155H36.681a.577.577,0,0,1,.233.047.621.621,0,0,1,.2.13.577.577,0,0,1,.137.2h0a.621.621,0,0,1,.047.239V42.11A.621.621,0,0,1,36.678,42.725ZM17.742,41.483H36.057V29.649l-8.869,9a.664.664,0,0,1-.45.186.621.621,0,0,1-.444-.192l-8.552-8.962Zm.829-12.727,8.18,8.577,8.444-8.577Z" transform="translate(-16.5 -27.52)" fill="#333"/>
</svg>
