<svg xmlns="http://www.w3.org/2000/svg" width="14.808" height="26.177" viewBox="0 0 14.808 26.177">
  <path id="Path_10774" data-name="Path 10774" d="M18.9,0H7.815A1.837,1.837,0,0,0,6,1.911V24.266a1.916,1.916,0,0,0,1.911,1.911H18.9a1.916,1.916,0,0,0,1.911-1.911V1.911A1.916,1.916,0,0,0,18.9,0ZM10.681,1.146h5.446c.1,0,.287.191.287.478s-.1.478-.287.478H10.681c-.1,0-.287-.191-.287-.478S10.49,1.146,10.681,1.146Zm2.675,23.215A1.242,1.242,0,1,1,14.6,23.12,1.265,1.265,0,0,1,13.356,24.362Zm6.019-4.2H7.338V3.248H19.375Z" transform="translate(-6)" fill="#fff"/>
</svg>
