<svg xmlns="http://www.w3.org/2000/svg" width="37.248" height="29.257" viewBox="0 0 37.248 29.257"><defs><style>.a{fill:#4a7598;}</style></defs><path class="a" d="M1832.248,1133.439v16.492a3.271,3.271,0,0,1-.985,2.356,3.2,3.2,0,0,1-2.341.97h-30.6a3.2,3.2,0,0,1-2.341-.97,3.272,3.272,0,0,1-.985-2.356v-16.492a10.869,10.869,0,0,0,2.11,1.8c5,3.4,8.453,5.805,10.317,7.176.8.569,1.432,1.031,1.925,1.355a12.144,12.144,0,0,0,1.971,1,5.944,5.944,0,0,0,2.279.508h.047a5.945,5.945,0,0,0,2.279-.508,12.14,12.14,0,0,0,1.971-1c.493-.323,1.124-.785,1.925-1.355q3.534-2.564,10.348-7.176A11.823,11.823,0,0,0,1832.248,1133.439Zm0-6.113a5.428,5.428,0,0,1-1.031,3.141,10.229,10.229,0,0,1-2.526,2.556c-5.2,3.6-8.453,5.867-9.732,6.744-.139.108-.431.308-.878.631-.447.339-.832.6-1.124.8s-.662.416-1.078.678a6.332,6.332,0,0,1-1.2.554,3.246,3.246,0,0,1-1.032.185h-.047a3.241,3.241,0,0,1-1.031-.185,6.344,6.344,0,0,1-1.2-.554c-.416-.262-.785-.477-1.078-.678s-.677-.462-1.124-.8c-.446-.324-.739-.524-.878-.631l-5.45-3.788c-2.372-1.648-3.788-2.633-4.266-2.956a10.465,10.465,0,0,1-2.417-2.4,4.837,4.837,0,0,1-1.155-2.833,4.228,4.228,0,0,1,.863-2.71,2.976,2.976,0,0,1,2.464-1.078h30.6a3.189,3.189,0,0,1,2.325.97A3.227,3.227,0,0,1,1832.248,1127.326Z" transform="translate(-1795 -1124)"/></svg>