<svg xmlns="http://www.w3.org/2000/svg" width="16.48" height="18.881" viewBox="0 0 16.48 18.881">
  <g id="Group_2207" data-name="Group 2207" transform="translate(-290.146 -52)">
    <g id="Group_1978" data-name="Group 1978" transform="translate(290.146 52)">
      <path id="Path_10600" data-name="Path 10600" d="M772.488,285.436v-.676l1.992-1.992V277.2a6.225,6.225,0,0,1,4.806-6.073l.174-.042v-.858a1.268,1.268,0,0,1,2.535,0v.858l.175.042a6.239,6.239,0,0,1,4.805,6.074v5.571l1.992,1.992v.676Zm8.24-12.948a4.713,4.713,0,0,0-4.708,4.708v6.7h9.416v-6.7a4.715,4.715,0,0,0-4.707-4.708Z" transform="translate(-772.488 -268.956)" fill="#333"/>
      <path id="Path_10601" data-name="Path 10601" d="M781.405,289.646a1.769,1.769,0,0,1-1.751-1.539h3.5A1.769,1.769,0,0,1,781.405,289.646Z" transform="translate(-773.165 -270.766)" fill="#333"/>
    </g>
  </g>
</svg>
