<svg xmlns="http://www.w3.org/2000/svg" width="24.879" height="24.237" viewBox="0 0 24.879 24.237"><g transform="translate(-57.455 -69.208)"><g transform="translate(57.455 75.878)"><g transform="translate(0 0)"><path d="M66.422,318.382a4.7,4.7,0,0,1-.038.591c.011-.085.022-.17.036-.255a4.553,4.553,0,0,1-.315,1.152c.033-.077.066-.153.1-.23a4.577,4.577,0,0,1-.577.988c.049-.066.1-.129.151-.194a4.644,4.644,0,0,1-.818.821c.066-.049.129-.1.194-.15a4.663,4.663,0,0,1-1.01.588c.077-.033.153-.066.23-.1a4.632,4.632,0,0,1-1.114.3c.085-.011.17-.022.255-.036a4.7,4.7,0,0,1-1.223,0c.085.011.17.022.255.036a4.666,4.666,0,0,1-1.133-.309c.077.033.153.066.23.1a4.683,4.683,0,0,1-.993-.577c.066.049.129.1.194.151a4.6,4.6,0,0,1-.832-.832c.049.066.1.129.151.194a4.615,4.615,0,0,1-.577-.993c.033.077.066.153.1.23a4.634,4.634,0,0,1-.309-1.133c.011.085.022.17.036.255a4.731,4.731,0,0,1,0-1.212c-.011.085-.022.17-.036.255a4.667,4.667,0,0,1,.309-1.133c-.033.077-.066.153-.1.23a4.682,4.682,0,0,1,.577-.993c-.049.066-.1.129-.151.194a4.6,4.6,0,0,1,.832-.832c-.066.049-.129.1-.194.151a4.615,4.615,0,0,1,.993-.577c-.077.033-.153.066-.23.1a4.634,4.634,0,0,1,1.133-.309c-.085.011-.17.022-.255.036a4.8,4.8,0,0,1,1.221,0c-.085-.011-.17-.022-.255-.036a4.578,4.578,0,0,1,1.111.3c-.077-.033-.153-.066-.23-.1a4.568,4.568,0,0,1,1.007.586c-.066-.049-.129-.1-.194-.15a4.631,4.631,0,0,1,.818.818c-.049-.066-.1-.129-.151-.194a4.575,4.575,0,0,1,.575.98c-.033-.077-.066-.153-.1-.23a4.63,4.63,0,0,1,.32,1.177c-.011-.085-.022-.17-.036-.255a3.986,3.986,0,0,1,.044.591.958.958,0,1,0,1.916,0,5.566,5.566,0,0,0-1.311-3.539,5.424,5.424,0,0,0-5.944-1.6,5.568,5.568,0,0,0-2.507,1.826,5.437,5.437,0,0,0,4.768,8.736,5.9,5.9,0,0,0,1.8-.468,5.431,5.431,0,0,0,3.084-3.867,6.049,6.049,0,0,0,.112-1.087.957.957,0,0,0-1.913,0Z" transform="translate(-57.455 -312.934)" fill="#869658"/></g></g><g transform="translate(73.456 69.208)"><g transform="translate(0 0)"><path d="M649.067,73.65a3.649,3.649,0,0,1-.03.457c.011-.085.022-.17.036-.255a3.489,3.489,0,0,1-.241.889c.033-.077.066-.153.1-.23a3.625,3.625,0,0,1-.452.777c.049-.066.1-.129.15-.194a3.546,3.546,0,0,1-.632.632c.066-.049.129-.1.194-.151a3.562,3.562,0,0,1-.777.454c.077-.033.153-.066.23-.1a3.705,3.705,0,0,1-.887.244c.085-.011.17-.022.255-.036a3.693,3.693,0,0,1-.92,0c.085.011.17.022.255.036a3.553,3.553,0,0,1-.884-.238c.077.033.153.066.23.1a3.73,3.73,0,0,1-.807-.471c.066.049.129.1.194.151a3.7,3.7,0,0,1-.627-.632c.049.066.1.129.151.194a3.657,3.657,0,0,1-.449-.777c.033.077.066.153.1.23a3.578,3.578,0,0,1-.233-.857c.011.085.022.17.036.255a3.573,3.573,0,0,1,0-.936c-.011.085-.022.17-.036.255a3.522,3.522,0,0,1,.238-.884c-.033.077-.066.153-.1.23a3.643,3.643,0,0,1,.449-.775c-.049.066-.1.129-.151.194a3.528,3.528,0,0,1,.654-.654c-.066.049-.129.1-.194.151a3.707,3.707,0,0,1,.775-.449c-.077.033-.153.066-.23.1a3.553,3.553,0,0,1,.884-.238c-.085.011-.17.022-.255.036a3.605,3.605,0,0,1,.909,0c-.085-.011-.17-.022-.255-.036a3.52,3.52,0,0,1,.884.238c-.077-.033-.153-.066-.23-.1a3.639,3.639,0,0,1,.774.449c-.066-.049-.129-.1-.194-.151a3.522,3.522,0,0,1,.654.654c-.049-.066-.1-.129-.15-.194a3.712,3.712,0,0,1,.449.775c-.033-.077-.066-.153-.1-.23a3.554,3.554,0,0,1,.238.884c-.011-.085-.022-.17-.036-.255a3.648,3.648,0,0,1,.033.454.958.958,0,1,0,1.916,0,4.423,4.423,0,0,0-1.6-3.4,5,5,0,0,0-1.27-.742,4.451,4.451,0,0,0-4.781,1.07,4.371,4.371,0,0,0-1.155,2.239,4.534,4.534,0,0,0,.545,3.115,4.4,4.4,0,0,0,2,1.768,4.738,4.738,0,0,0,1.552.386,4.469,4.469,0,0,0,1.322-.115,4.434,4.434,0,0,0,3.317-3.55,5.154,5.154,0,0,0,.071-.766.958.958,0,0,0-1.916,0Z" transform="translate(-642.111 -69.208)" fill="#869658"/></g></g><g transform="translate(73.45 84.559)"><g transform="translate(0 0)"><path d="M648.851,634.542a3.571,3.571,0,0,1-.03.454c.011-.085.022-.17.036-.255a3.522,3.522,0,0,1-.238.884c.033-.077.066-.153.1-.23a3.644,3.644,0,0,1-.449.774c.049-.066.1-.129.151-.194a3.529,3.529,0,0,1-.654.654c.066-.049.129-.1.194-.151a3.715,3.715,0,0,1-.775.449c.077-.033.153-.066.23-.1a3.555,3.555,0,0,1-.884.238c.085-.011.17-.022.255-.036a3.6,3.6,0,0,1-.909,0c.085.011.17.022.255.036a3.523,3.523,0,0,1-.884-.238c.077.033.153.066.23.1a3.644,3.644,0,0,1-.774-.449c.066.049.129.1.194.151a3.523,3.523,0,0,1-.654-.654c.049.066.1.129.151.194a3.712,3.712,0,0,1-.449-.774c.033.077.066.153.1.23a3.551,3.551,0,0,1-.238-.884c.011.085.022.17.036.255a3.717,3.717,0,0,1,0-.939c-.011.085-.022.17-.036.255a3.606,3.606,0,0,1,.235-.859c-.033.077-.066.153-.1.23a3.643,3.643,0,0,1,.449-.774c-.049.066-.1.129-.151.194a3.672,3.672,0,0,1,.624-.63c-.066.049-.129.1-.194.151a3.712,3.712,0,0,1,.8-.471c-.077.033-.153.066-.23.1a3.67,3.67,0,0,1,.884-.235c-.085.011-.17.022-.255.036a3.522,3.522,0,0,1,.914,0c-.085-.011-.17-.022-.255-.036a3.567,3.567,0,0,1,.89.241c-.077-.033-.153-.066-.23-.1a3.635,3.635,0,0,1,.777.454c-.066-.049-.129-.1-.194-.151a3.742,3.742,0,0,1,.632.632c-.049-.066-.1-.129-.151-.194a3.749,3.749,0,0,1,.454.777c-.033-.077-.066-.153-.1-.23a3.689,3.689,0,0,1,.241.889c-.011-.085-.022-.17-.036-.255a4.254,4.254,0,0,1,.03.457.958.958,0,0,0,1.916,0,4.433,4.433,0,0,0-.747-2.463,4.365,4.365,0,0,0-.859-.95,4.9,4.9,0,0,0-1.278-.745,4.433,4.433,0,0,0-4.915,1.256,4.524,4.524,0,0,0-1.084,2.958,4.422,4.422,0,0,0,1.637,3.377,5.029,5.029,0,0,0,1.278.734,4.426,4.426,0,0,0,4.765-1.13,4.348,4.348,0,0,0,1.13-2.274,5.111,5.111,0,0,0,.071-.764.957.957,0,1,0-1.913,0Z" transform="translate(-641.883 -630.097)" fill="#869658"/></g></g><g transform="translate(65.929 74.293)"><g transform="translate(0 0)"><path d="M368.527,260.81l2.668-1.363,4.253-2.173c.326-.167.651-.334.977-.5a.967.967,0,0,0,.345-1.311.981.981,0,0,0-1.311-.345l-2.668,1.363-4.253,2.173c-.326.167-.651.334-.977.5a.967.967,0,0,0-.345,1.311.981.981,0,0,0,1.311.345Z" transform="translate(-367.087 -255)" fill="#869658"/></g></g><g transform="translate(65.942 82.421)"><g transform="translate(0)"><path d="M376.875,556.156l-2.671-1.363q-2.127-1.088-4.256-2.173-.489-.25-.977-.5a1.007,1.007,0,0,0-.739-.1.958.958,0,0,0-.227,1.751l2.671,1.363q2.127,1.088,4.256,2.173c.326.167.651.334.977.5a1.008,1.008,0,0,0,.739.1.959.959,0,0,0,.227-1.752Z" transform="translate(-367.541 -551.993)" fill="#869658"/></g></g></g></svg>