<svg xmlns="http://www.w3.org/2000/svg" width="25.456" height="20.549" viewBox="0 0 25.456 20.549">
  <g id="meet_now" data-name="meet now" transform="translate(0.25 0.3)">
    <g id="Group_1836" data-name="Group 1836" transform="translate(17.322 14.073)">
      <path id="Path_2195" data-name="Path 2195" d="M358.306,355.674a2.231,2.231,0,0,1-1.524-.646.57.57,0,0,1,.806-.806h0a1.348,1.348,0,0,0,.481.277,1,1,0,0,0,1.155-1.155,1.344,1.344,0,0,0-.28-.484.57.57,0,0,1,.809-.8,2.042,2.042,0,0,1,0,2.971A2.014,2.014,0,0,1,358.306,355.674Z" transform="translate(-356.615 -351.889)" fill="#fff" stroke="#fff" stroke-width="0.5"/>
    </g>
    <g id="Group_1837" data-name="Group 1837" transform="translate(14.074 15.156)">
      <path id="Path_2196" data-name="Path 2196" d="M301.307,374.685a2.233,2.233,0,0,1-1.525-.646.57.57,0,1,1,.806-.806h0a1.35,1.35,0,0,0,.482.277,1,1,0,0,0,1.156-1.155,1.345,1.345,0,0,0-.28-.484.57.57,0,1,1,.809-.8,2.042,2.042,0,0,1,0,2.971A2.014,2.014,0,0,1,301.307,374.685Z" transform="translate(-299.615 -370.901)" fill="#fff" stroke="#fff" stroke-width="0.5"/>
    </g>
    <g id="Group_1838" data-name="Group 1838" transform="translate(7.578 14.678)">
      <path id="Path_2197" data-name="Path 2197" d="M190.563,367.823a2.349,2.349,0,0,1-1.528-.605l-.018-.017-1.083-1.083a.57.57,0,0,1,0-.806h0a1.347,1.347,0,0,0,.277-.481,1,1,0,0,0-1.155-1.155,1.345,1.345,0,0,0-.484.28.57.57,0,0,1-.8-.809,2.042,2.042,0,0,1,2.971,0,1.985,1.985,0,0,1,.348,2.513l.722.722a1.489,1.489,0,0,0,.5.269.944.944,0,0,0,1.118-1.152,1.5,1.5,0,0,0-.265-.481.57.57,0,1,1,.84-.77,2.1,2.1,0,0,1-.017,2.953A1.976,1.976,0,0,1,190.563,367.823Z" transform="translate(-185.601 -362.501)" fill="#fff" stroke="#fff" stroke-width="0.5"/>
    </g>
    <g id="Group_1839" data-name="Group 1839" transform="translate(7.098 15.156)">
      <path id="Path_2198" data-name="Path 2198" d="M179.268,374.688a2.014,2.014,0,0,1-1.447-.646,1.954,1.954,0,0,1-.544-2.072,2.472,2.472,0,0,1,.544-.9.57.57,0,0,1,.806.806h0a1.348,1.348,0,0,0-.277.481,1,1,0,0,0,1.155,1.155,1.347,1.347,0,0,0,.485-.28.57.57,0,0,1,.8.809A2.231,2.231,0,0,1,179.268,374.688Z" transform="translate(-177.172 -370.904)" fill="#fff" stroke="#fff" stroke-width="0.5"/>
    </g>
    <g id="Group_1840" data-name="Group 1840" transform="translate(5.412)">
      <path id="Path_2199" data-name="Path 2199" d="M163.381,120.6a2.231,2.231,0,0,1-1.524-.646.57.57,0,0,1,.8-.809,1.345,1.345,0,0,0,.484.28,1,1,0,0,0,1.155-1.155,1.345,1.345,0,0,0-.28-.484l-1.07-1.07-.018-.018-5.237-5.237h-3.858l-.916.916c-1.117,1.117-2.124,1.568-3.079,1.379a4.225,4.225,0,0,1-2.057-1.379.57.57,0,0,1,0-.808c.011-.011,1.111-1.1,3.251-3.24,2.067-2.067,6.562-1.5,7.784-1.3l1.955-1.955a.57.57,0,0,1,.806,0l5.413,5.413a.57.57,0,0,1,0,.806l-2.07,2.07-.929,2.786.834.834a2.472,2.472,0,0,1,.544.9,1.954,1.954,0,0,1-.544,2.072A2.014,2.014,0,0,1,163.381,120.6ZM153.6,110.318h4.331a.57.57,0,0,1,.4.167l4.761,4.761.791-2.373a.569.569,0,0,1,.138-.223l1.762-1.762-4.607-4.607-1.762,1.762a.57.57,0,0,1-.514.156c-.051-.01-5.135-.991-7.059.933-1.392,1.392-2.344,2.34-2.844,2.836a2.366,2.366,0,0,0,1.063.667c.553.11,1.225-.24,2.052-1.067l1.083-1.083A.57.57,0,0,1,153.6,110.318Z" transform="translate(-147.616 -104.905)" fill="#fff" stroke="#fff" stroke-width="0.5"/>
    </g>
    <g id="Group_1841" data-name="Group 1841" transform="translate(1.686 9.265)">
      <path id="Path_2200" data-name="Path 2200" d="M84.307,273.93a2.014,2.014,0,0,1-1.447-.646,2.042,2.042,0,0,1,0-2.971l2.165-2.165A2.1,2.1,0,0,1,88,271.119a.57.57,0,0,1-.806-.806h0a1.347,1.347,0,0,0,.277-.481,1,1,0,0,0-1.155-1.155,1.346,1.346,0,0,0-.484.28l-2.162,2.162h0a1.348,1.348,0,0,0-.277.481,1,1,0,0,0,1.155,1.155,1.346,1.346,0,0,0,.485-.28.57.57,0,1,1,.8.809A2.231,2.231,0,0,1,84.307,273.93Z" transform="translate(-82.214 -267.502)" fill="#fff" stroke="#fff" stroke-width="0.5"/>
    </g>
    <g id="Group_1842" data-name="Group 1842" transform="translate(3.85 11.428)">
      <path id="Path_2201" data-name="Path 2201" d="M122.266,311.891a2.037,2.037,0,0,1-1.445-.648,1.954,1.954,0,0,1-.544-2.072,2.472,2.472,0,0,1,.544-.9l2.165-2.165a2.321,2.321,0,0,1,1.526-.648,2.135,2.135,0,0,1,1.445,3.619l-2.165,2.165A2.321,2.321,0,0,1,122.266,311.891Zm-.64-2.813a1.349,1.349,0,0,0-.277.481.813.813,0,0,0,.277.878.906.906,0,0,0,.64.314,1.222,1.222,0,0,0,.72-.314l2.165-2.165h0a1.348,1.348,0,0,0,.277-.481.813.813,0,0,0-.277-.878.906.906,0,0,0-.64-.314,1.222,1.222,0,0,0-.72.314l-2.165,2.165Z" transform="translate(-120.172 -305.459)" fill="#fff" stroke="#fff" stroke-width="0.5"/>
    </g>
    <g id="Group_1843" data-name="Group 1843" transform="translate(11.91 15.157)">
      <path id="Path_2202" data-name="Path 2202" d="M264.363,374.22a.568.568,0,0,1-.4-.167l-2.165-2.164a.57.57,0,1,1,.806-.806l2.165,2.165a.57.57,0,0,1-.4.973Z" transform="translate(-261.628 -370.916)" fill="#fff" stroke="#fff" stroke-width="0.5"/>
    </g>
    <g id="Group_1844" data-name="Group 1844" transform="translate(14.074 12.991)">
      <path id="Path_2203" data-name="Path 2203" d="M303.433,337.291a.568.568,0,0,1-.4-.167l-3.248-3.248a.57.57,0,1,1,.806-.806l3.248,3.248a.57.57,0,0,1-.4.973Z" transform="translate(-299.615 -332.903)" fill="#fff" stroke="#fff" stroke-width="0.5"/>
    </g>
    <g id="Group_1845" data-name="Group 1845" transform="translate(16.24 10.827)">
      <path id="Path_2204" data-name="Path 2204" d="M341.445,299.3a.568.568,0,0,1-.4-.167l-3.247-3.247a.57.57,0,0,1,.806-.806l3.247,3.247a.57.57,0,0,1-.4.973Z" transform="translate(-337.628 -294.916)" fill="#fff" stroke="#fff" stroke-width="0.5"/>
    </g>
    <g id="Group_1846" data-name="Group 1846">
      <path id="Path_2205" data-name="Path 2205" d="M56.434,116.87a.57.57,0,0,1-.541-.39l-1.04-3.12-2.07-2.07a.57.57,0,0,1,0-.806l5.419-5.413a.57.57,0,0,1,.806,0l1.955,1.955a16.64,16.64,0,0,1,4.177-.16.57.57,0,1,1-.12,1.133,15.816,15.816,0,0,0-4.138.2.57.57,0,0,1-.515-.156l-1.763-1.763-4.612,4.608,1.762,1.762a.571.571,0,0,1,.138.223l1.083,3.248a.571.571,0,0,1-.541.75Z" transform="translate(-52.617 -104.904)" fill="#fff" stroke="#fff" stroke-width="0.5"/>
    </g>
  </g>
</svg>
