<svg xmlns="http://www.w3.org/2000/svg" width="27.984" height="27.984" viewBox="0 0 27.984 27.984">
  <g id="skillset" transform="translate(-1.999 -2)">
    <path id="Path_10733" data-name="Path 10733" d="M14.858,38.108l-2.133,1.066-2.565-2.137a.466.466,0,0,0-.56-.03l-1.4.933a.466.466,0,0,0-.071.718l3.731,3.731a.466.466,0,0,0,.513.1l2.616-1.119v4.888h.933v-5.6a.466.466,0,0,0-.65-.429L12.3,41.506,9.191,38.4l.638-.424,2.531,2.109a.466.466,0,0,0,.507.059l2.406-1.2a1.411,1.411,0,0,1,.628-.147h2.72L17.8,42.9a.466.466,0,0,0,.069.35l.933,1.4a.466.466,0,0,0,.776,0l.933-1.4a.466.466,0,0,0,.069-.35l-.821-4.1h2.723a1.4,1.4,0,0,1,.626.148l2.4,1.2a.466.466,0,0,0,.507-.059l2.53-2.109.635.423-3.106,3.106-2.97-1.277a.466.466,0,0,0-.653.429v5.6h.933V41.368L26,42.487a.466.466,0,0,0,.513-.1l3.731-3.731a.466.466,0,0,0-.07-.718l-1.4-.933a.466.466,0,0,0-.56.03l-2.565,2.137-2.122-1.064a2.345,2.345,0,0,0-1.045-.247H20.3a2.8,2.8,0,1,0-2.23,0H15.9a2.345,2.345,0,0,0-1.042.246Zm4.332,5.444-.437-.656.437-2.189.437,2.188ZM17.324,35.3a1.866,1.866,0,1,1,1.866,1.866A1.866,1.866,0,0,1,17.324,35.3Z" transform="translate(-3.198 -16.273)" fill="#fff"/>
    <rect id="Rectangle_2677" data-name="Rectangle 2677" width="1.008" height="2.016" transform="translate(3.007 13.087)" fill="#fff"/>
    <rect id="Rectangle_2678" data-name="Rectangle 2678" width="1.008" height="3.024" transform="translate(7.039 14.095)" fill="#fff"/>
    <rect id="Rectangle_2679" data-name="Rectangle 2679" width="1.008" height="2.016" transform="translate(10.063 13.087)" fill="#fff"/>
    <path id="Path_10734" data-name="Path 10734" d="M2.03,8.385a.9.9,0,0,0,.1.7l.751,1.243a.951.951,0,0,0,1.265.332l.306-.14a3.8,3.8,0,0,0,.992.531v.3a.926.926,0,0,0,.935.912h1.5a.926.926,0,0,0,.933-.914l.013-.287a5.071,5.071,0,0,0,1.011-.555l.274.152a.952.952,0,0,0,1.265-.331l.751-1.244a.9.9,0,0,0,.1-.7.909.909,0,0,0-.445-.564l-.266-.111a4.1,4.1,0,0,0,.044-.579,2.733,2.733,0,0,0-.047-.541l.271-.149a.91.91,0,0,0,.445-.565.9.9,0,0,0-.1-.7l-.751-1.243A.953.953,0,0,0,10.115,3.6l-.306.14a3.8,3.8,0,0,0-.992-.531v-.3A.926.926,0,0,0,7.883,2h-1.5a.926.926,0,0,0-.935.914L5.431,3.2a5.072,5.072,0,0,0-1.011.555L4.145,3.6a.953.953,0,0,0-1.265.331l-.75,1.244a.9.9,0,0,0-.1.7.909.909,0,0,0,.445.564l.266.111A4.1,4.1,0,0,0,2.7,7.13a2.734,2.734,0,0,0,.047.541l-.271.149a.91.91,0,0,0-.445.565Zm1.6-1.255a3.185,3.185,0,0,1,.032-.446A.9.9,0,0,0,3.2,5.774l-.269-.112L3.7,4.421l.274.152A.969.969,0,0,0,5,4.5a3.52,3.52,0,0,1,.774-.43.926.926,0,0,0,.6-.854l0-.28,1.5-.019v.3a.926.926,0,0,0,.6.854,3.534,3.534,0,0,1,.775.43.966.966,0,0,0,1.034.076l.29-.154.752,1.206-.271.15a.9.9,0,0,0-.466.91,3.128,3.128,0,0,1,.031.446,3.185,3.185,0,0,1-.032.446.9.9,0,0,0,.466.911l.269.112L10.565,9.84l-.274-.152a.967.967,0,0,0-1.035.076,3.52,3.52,0,0,1-.774.43.926.926,0,0,0-.6.854l0,.28-1.5.019v-.3a.926.926,0,0,0-.6-.854A3.534,3.534,0,0,1,5,9.764a.983.983,0,0,0-.582-.191.933.933,0,0,0-.453.116l-.29.154L2.926,8.637l.271-.15a.9.9,0,0,0,.466-.91A3.128,3.128,0,0,1,3.632,7.13Z" transform="translate(0 0)" fill="#fff"/>
    <path id="Path_10735" data-name="Path 10735" d="M10.332,12.664A2.332,2.332,0,1,0,8,10.332a2.332,2.332,0,0,0,2.332,2.332Zm0-3.731a1.4,1.4,0,1,1-1.4,1.4,1.4,1.4,0,0,1,1.4-1.4Z" transform="translate(-3.202 -3.202)" fill="#fff"/>
    <rect id="Rectangle_2680" data-name="Rectangle 2680" width="1.008" height="2.016" transform="translate(21.149 13.087)" fill="#fff"/>
    <rect id="Rectangle_2681" data-name="Rectangle 2681" width="1.008" height="3.024" transform="translate(24.173 14.095)" fill="#fff"/>
    <rect id="Rectangle_2682" data-name="Rectangle 2682" width="1.008" height="2.016" transform="translate(27.197 13.087)" fill="#fff"/>
    <path id="Path_10736" data-name="Path 10736" d="M40.03,8.385a.9.9,0,0,0,.1.7l.751,1.243a.951.951,0,0,0,1.265.332l.306-.14a3.8,3.8,0,0,0,.992.531v.3a.926.926,0,0,0,.935.912h1.5a.926.926,0,0,0,.935-.914l.013-.287a5.072,5.072,0,0,0,1.011-.555l.274.152a.952.952,0,0,0,1.265-.331l.751-1.244a.9.9,0,0,0,.1-.7.909.909,0,0,0-.445-.564l-.266-.111a4.1,4.1,0,0,0,.042-.579,2.733,2.733,0,0,0-.047-.541l.271-.149a.91.91,0,0,0,.445-.565.9.9,0,0,0-.1-.7l-.751-1.243A.952.952,0,0,0,48.115,3.6l-.306.14a3.8,3.8,0,0,0-.992-.531v-.3A.926.926,0,0,0,45.881,2h-1.5a.926.926,0,0,0-.935.914l-.013.287a5.072,5.072,0,0,0-1.011.555L42.145,3.6a.953.953,0,0,0-1.265.331l-.75,1.244a.9.9,0,0,0-.1.7.909.909,0,0,0,.445.564l.266.111a4.1,4.1,0,0,0-.042.579,2.734,2.734,0,0,0,.047.541l-.271.149A.91.91,0,0,0,40.03,8.385Zm1.6-1.255a3.186,3.186,0,0,1,.032-.446.9.9,0,0,0-.466-.911l-.269-.112.767-1.241.274.152A.969.969,0,0,0,43,4.5a3.52,3.52,0,0,1,.774-.43.926.926,0,0,0,.6-.854l0-.28,1.5-.019v.3a.926.926,0,0,0,.6.854,3.534,3.534,0,0,1,.775.43.966.966,0,0,0,1.034.076l.29-.154.752,1.206-.271.15a.9.9,0,0,0-.466.91,3.126,3.126,0,0,1,.031.446,3.187,3.187,0,0,1-.032.446.9.9,0,0,0,.466.911l.269.112L48.565,9.84l-.274-.152a.967.967,0,0,0-1.035.076,3.52,3.52,0,0,1-.774.43.926.926,0,0,0-.6.854l0,.28-1.5.019v-.3a.926.926,0,0,0-.6-.854A3.535,3.535,0,0,1,43,9.764a.983.983,0,0,0-.582-.191.933.933,0,0,0-.453.116l-.29.154-.752-1.206.271-.15a.9.9,0,0,0,.466-.91A3.128,3.128,0,0,1,41.632,7.13Z" transform="translate(-20.277 0)" fill="#fff"/>
    <path id="Path_10737" data-name="Path 10737" d="M48.332,12.664A2.332,2.332,0,1,0,46,10.332,2.332,2.332,0,0,0,48.332,12.664Zm0-3.731a1.4,1.4,0,1,1-1.4,1.4A1.4,1.4,0,0,1,48.332,8.933Z" transform="translate(-23.479 -3.202)" fill="#fff"/>
  </g>
</svg>
