<svg xmlns="http://www.w3.org/2000/svg" width="41" height="37.854" viewBox="0 0 41 37.854">
  <g id="Group_3184" data-name="Group 3184" transform="translate(-1304 -546)">
    <rect id="Rectangle_2639" data-name="Rectangle 2639" width="1.259" height="17.67" transform="translate(1307.242 558.729)" fill="#666"/>
    <rect id="Rectangle_2640" data-name="Rectangle 2640" width="1.259" height="2.699" transform="translate(1310.228 573.699)" fill="#666"/>
    <rect id="Rectangle_2641" data-name="Rectangle 2641" width="1.259" height="14.193" transform="translate(1310.228 558.729)" fill="#666"/>
    <rect id="Rectangle_2642" data-name="Rectangle 2642" width="1.259" height="2.699" transform="translate(1316.198 558.729)" fill="#666"/>
    <rect id="Rectangle_2643" data-name="Rectangle 2643" width="1.259" height="17.67" transform="translate(1313.213 558.729)" fill="#666"/>
    <path id="Path_10730" data-name="Path 10730" d="M44.706,26.224H37.733V23.4a1.35,1.35,0,0,0-1.348-1.348H28.507A1.35,1.35,0,0,0,27.159,23.4v2.821H25.585V21.018a2.335,2.335,0,0,0-2.332-2.333H21.17V10.758A1.35,1.35,0,0,0,19.822,9.41H11.943A1.35,1.35,0,0,0,10.6,10.758v7.927H8.512a2.335,2.335,0,0,0-2.333,2.333V42a.63.63,0,0,0,.9.569,2.764,2.764,0,0,1,.531-.188v.589a2.2,2.2,0,1,0,1.259,0v-.6a2.777,2.777,0,0,1,2.157,2.663.629.629,0,0,0,.63.621h8.456a.583.583,0,0,0,.121-.024h1.633v.811a.63.63,0,0,0,.63.63h4.228a.63.63,0,0,0,.63-.63V45.63h10.19v.811a.63.63,0,0,0,.63.63H42.4a.63.63,0,0,0,.63-.63V45.63h1.678A2.335,2.335,0,0,0,47.04,43.3V28.556A2.337,2.337,0,0,0,44.706,26.224ZM45.78,43.3a1.075,1.075,0,0,1-1.074,1.074h-.791V42.852a.223.223,0,0,1,.223-.222H45.78ZM34.169,30.127l.914.769v3.258H33.4V30.87ZM22.113,44.371V42.729c0-.015,0-.03,0-.045a1.493,1.493,0,0,0-1.477-1.436H19.112V30.483h1.581A1.5,1.5,0,0,0,22.174,29V27.483h.945v5.856h-.506a.606.606,0,0,0-.131.027.621.621,0,0,0-.5.6v3.876a.62.62,0,0,0,.5.6.59.59,0,0,0,.131.027h.506v5.9H22.113Zm-3-15.815a1.087,1.087,0,0,1,1.074-1.074h.729V29a.223.223,0,0,1-.222.223H19.112Zm6.419,4.782H24.378V27.483h1.153Zm-1.2,3.876H23.243V34.6h3.426v2.617H24.327Zm.051,5.231V38.473h1.153v5.9H24.378Zm-4.8,1.739a1.077,1.077,0,0,1-.453-.721,1.027,1.027,0,0,1-.017-.166v-.79h1.518a.223.223,0,0,1,.223.222v1.558c-.008.028-.015.055-.023.084h-.645A1.071,1.071,0,0,1,19.582,44.184Zm7.207.187v-5.9H27.3a.63.63,0,0,0,.63-.63V33.967a.63.63,0,0,0-.63-.63H26.79V27.483h6.719v1.53l-1.174,1.14a.629.629,0,0,0-.191.452v4.18a.63.63,0,0,0,.63.63h2.938a.63.63,0,0,0,.63-.63V30.6a.632.632,0,0,0-.223-.482l-1.35-1.137v-1.5h3.326v5.856h-.505a.63.63,0,0,0-.63.63v3.876a.629.629,0,0,0,.63.63h.505v5.9H26.79ZM40.506,27.483v5.856H39.353V27.483Zm0,16.889H39.353v-5.9h1.153ZM41.644,34.6v2.617H38.218V34.6Zm2.493,6.774a1.483,1.483,0,0,0-1.482,1.481v1.519h-.892v-5.9h.509a.63.63,0,0,0,.63-.63V33.967a.63.63,0,0,0-.63-.63h-.509V27.483h.955v1.643a1.482,1.482,0,0,0,1.48,1.48H45.78V41.372H44.138Zm.568-13.888a1.075,1.075,0,0,1,1.074,1.074v.79H44.2a.222.222,0,0,1-.221-.221V27.483h.729ZM28.418,23.4a.089.089,0,0,1,.089-.089h7.879a.089.089,0,0,1,.089.089v.455H28.418Zm0,1.713h8.057v1.107H28.418ZM11.854,10.758a.089.089,0,0,1,.089-.089h7.879a.089.089,0,0,1,.089.089v1.134H11.854Zm0,2.392h8.057v5.535H11.854ZM9.179,45.065a.94.94,0,1,1-.94-.94A.941.941,0,0,1,9.179,45.065Zm-.917-4.025a3.95,3.95,0,0,0-.823.086V21.018a1.075,1.075,0,0,1,1.074-1.074h14.74a1.075,1.075,0,0,1,1.074,1.074v5.206H22.483V22.138H21.224v4.085H20.186a2.311,2.311,0,0,0-.689.116v-.724H18.239v1.663a2.315,2.315,0,0,0-.385,1.277V42.2H11.08A4.009,4.009,0,0,0,8.261,41.041ZM12.228,44.4a3.955,3.955,0,0,0-.282-.932h5.924a2.3,2.3,0,0,0,.27.932Zm13.864,1.417h-2.97V45.63h2.97Zm15.677,0H38.8V45.63h2.97Z" transform="translate(1297.96 536.59)" fill="#666"/>
  </g>
</svg>
