<svg xmlns="http://www.w3.org/2000/svg" width="35.443" height="28.597" viewBox="0 0 35.443 28.597">
  <g id="Group_3182" data-name="Group 3182" transform="translate(-47.277 -551.902)">
    <circle id="Ellipse_1206" data-name="Ellipse 1206" cx="0.611" cy="0.611" r="0.611" transform="translate(49.721 553.735)" fill="#666"/>
    <circle id="Ellipse_1207" data-name="Ellipse 1207" cx="0.611" cy="0.611" r="0.611" transform="translate(75.383 553.735)" fill="#666"/>
    <circle id="Ellipse_1208" data-name="Ellipse 1208" cx="0.611" cy="0.611" r="0.611" transform="translate(68.051 553.735)" fill="#666"/>
    <circle id="Ellipse_1209" data-name="Ellipse 1209" cx="0.611" cy="0.611" r="0.611" transform="translate(70.494 553.735)" fill="#666"/>
    <circle id="Ellipse_1210" data-name="Ellipse 1210" cx="0.611" cy="0.611" r="0.611" transform="translate(72.939 553.735)" fill="#666"/>
    <path id="Path_10704" data-name="Path 10704" d="M36.6,22.858a1.833,1.833,0,0,0-1.833,1.833V10.333A1.833,1.833,0,0,0,32.938,8.5H4.833A1.833,1.833,0,0,0,3,10.333V29.884a1.833,1.833,0,0,0,1.833,1.833H23.266a2.542,2.542,0,0,0,.238.758l-.141,1.644a2.859,2.859,0,1,0,5.713.238c0-.079,0-.171,0-.238l-.061-.69a1.466,1.466,0,0,0,1.656-.9c.1-.171.1-.2.44-.2h3.666v.305a1.833,1.833,0,1,0,3.666,0V24.691A1.833,1.833,0,0,0,36.6,22.858ZM23.266,24.569l-.251.733a2.737,2.737,0,0,0-.556.953,2.774,2.774,0,0,0,.11,1.955l.452,2.273H4.833a.611.611,0,0,1-.611-.611V10.321a.611.611,0,0,1,.611-.611H32.938a.611.611,0,0,1,.611.611V24.728h-3.9l-1.081-.868a1.362,1.362,0,0,0-.354-.2l-.122-1.546A4.277,4.277,0,0,0,28,14.384a.625.625,0,0,0-.892.556v2.419a.916.916,0,1,1-1.833,0V14.946a.625.625,0,0,0-.892-.556,4.277,4.277,0,0,0-.086,7.729l-.116,1.491a1.509,1.509,0,0,0-.916.959Zm3.709-1.033H25.46l.147-1.76a.611.611,0,0,0-.409-.611,3.055,3.055,0,0,1-1.118-5.053v1.246a2.138,2.138,0,0,0,4.277,0V16.1a3.055,3.055,0,0,1-1.118,5.053.611.611,0,0,0-.409.611Zm-.758,12.458A1.613,1.613,0,0,1,25,35.463a1.6,1.6,0,0,1-.428-1.222l.067-.849a1.729,1.729,0,0,0,.434.061h2.7l.067.8v.128a1.637,1.637,0,0,1-1.619,1.613Zm8.554-4.888H31.105a1.644,1.644,0,0,0-1.564.947.36.36,0,0,1-.287.153H25.087a.611.611,0,0,1-.58-.5l-.733-3.788a.538.538,0,0,0-.043-.141,1.582,1.582,0,0,1-.086-1.13,1.5,1.5,0,0,1,.36-.574.66.66,0,0,0,.153-.238l.287-.88a.293.293,0,0,1,.275-.2h2.9a.312.312,0,0,1,.177.061l1.222,1a.611.611,0,0,0,.379.134h5.371Zm2.444,1.527a.611.611,0,1,1-1.222,0V24.691a.611.611,0,1,1,1.222,0Z" transform="translate(44.277 543.402)" fill="#666"/>
    <path id="Path_10705" data-name="Path 10705" d="M8.238,20.3l.611.477a4.069,4.069,0,0,0,0,1.405l-.611.477a.611.611,0,0,0-.159.788L8.861,24.8a.611.611,0,0,0,.764.257l.727-.3a4.277,4.277,0,0,0,1.222.7l.092.782a.611.611,0,0,0,.611.532h1.558a.611.611,0,0,0,.611-.532l.1-.782a4.454,4.454,0,0,0,1.222-.7l.721.3a.611.611,0,0,0,.764-.257l.782-1.356a.611.611,0,0,0-.159-.788l-.611-.477a4.069,4.069,0,0,0,0-1.405l.611-.477a.611.611,0,0,0,.159-.788l-.794-1.356a.611.611,0,0,0-.764-.244l-.721.3a4.454,4.454,0,0,0-1.222-.7l-.1-.782a.611.611,0,0,0-.611-.532H12.276a.611.611,0,0,0-.611.532l-.1.782a4.142,4.142,0,0,0-1.222.7l-.721-.3a.611.611,0,0,0-.764.257l-.782,1.344A.611.611,0,0,0,8.238,20.3Zm1.894,1.973a2.921,2.921,0,0,1,0-1.589.611.611,0,0,0-.22-.642l-.5-.391.238-.415.611.238a.611.611,0,0,0,.672-.128,3.055,3.055,0,0,1,1.344-.794.611.611,0,0,0,.452-.507l.079-.611H13.3l.079.611a.611.611,0,0,0,.452.507,3.055,3.055,0,0,1,1.375.794.611.611,0,0,0,.666.128l.611-.238.244.415-.507.391a.611.611,0,0,0-.22.642,2.92,2.92,0,0,1,0,1.589.611.611,0,0,0,.22.642l.507.391-.244.415-.611-.238a.611.611,0,0,0-.666.128,3.055,3.055,0,0,1-1.375.794.611.611,0,0,0-.452.507l-.079.611h-.489l-.079-.611a.611.611,0,0,0-.452-.507,3.055,3.055,0,0,1-1.369-.794.611.611,0,0,0-.672-.128l-.611.238-.238-.415.5-.391A.611.611,0,0,0,10.132,22.273Z" transform="translate(42.332 540.407)" fill="#666"/>
    <path id="Path_10706" data-name="Path 10706" d="M14.971,25.581a2.041,2.041,0,1,0-2.041-2.041A2.041,2.041,0,0,0,14.971,25.581Zm0-2.859a.819.819,0,1,1-.819.819A.819.819,0,0,1,14.971,22.722Z" transform="translate(40.414 538.346)" fill="#666"/>
    <path id="Path_10707" data-name="Path 10707" d="M26.611,21.722h3.36a.611.611,0,1,0,0-1.222h-3.36a.611.611,0,1,0,0,1.222Z" transform="translate(35.33 538.734)" fill="#666"/>
    <path id="Path_10708" data-name="Path 10708" d="M27.611,23.5a.611.611,0,1,0,0,1.222h1.833a.611.611,0,1,0,0-1.222Z" transform="translate(34.941 537.567)" fill="#666"/>
    <path id="Path_10709" data-name="Path 10709" d="M26.611,27.722h3.055a.611.611,0,1,0,0-1.222H26.611a.611.611,0,1,0,0,1.222Z" transform="translate(35.33 536.4)" fill="#666"/>
    <path id="Path_10710" data-name="Path 10710" d="M29.888,29.5H25.611a.611.611,0,1,0,0,1.222h4.277a.611.611,0,1,0,0-1.222Z" transform="translate(35.719 535.233)" fill="#666"/>
    <path id="Path_10711" data-name="Path 10711" d="M23.442,35.5H10.611a.611.611,0,1,0,0,1.222H23.442a.611.611,0,1,0,0-1.222Z" transform="translate(41.555 532.899)" fill="#666"/>
    <path id="Path_10712" data-name="Path 10712" d="M22.664,38.5H8.611a.611.611,0,1,0,0,1.222H22.664a.611.611,0,1,0,0-1.222Z" transform="translate(42.332 531.732)" fill="#666"/>
  </g>
</svg>
