<svg xmlns="http://www.w3.org/2000/svg" width="24.577" height="18.583" viewBox="0 0 24.577 18.583">
  <g id="Group_3189" data-name="Group 3189" transform="translate(-1046.755 -42.218)">
    <g id="video1" transform="translate(1037.755 -929.144)">
      <path id="Path_12666" data-name="Path 12666" d="M14.1,971.362a5.1,5.1,0,0,0-5.1,5.1v8.392a5.1,5.1,0,0,0,5.1,5.1H28.482a5.1,5.1,0,0,0,5.1-5.1v-8.392a5.1,5.1,0,0,0-5.1-5.1Zm0,1.8H28.482a3.27,3.27,0,0,1,3.3,3.3v8.392a3.27,3.27,0,0,1-3.3,3.3H14.1a3.27,3.27,0,0,1-3.3-3.3v-8.392A3.27,3.27,0,0,1,14.1,973.16Zm4.524,3a.9.9,0,0,0-.927.9v7.193a.9.9,0,0,0,1.33.8l6.594-3.6a.9.9,0,0,0,0-1.583l-6.594-3.6a.9.9,0,0,0-.4-.112Zm.871,2.416,3.812,2.08-3.812,2.089Z" transform="translate(0)" fill="#fff"/>
    </g>
  </g>
</svg>
