<svg xmlns="http://www.w3.org/2000/svg" width="17.791" height="9.099" viewBox="0 0 17.791 9.099"><g transform="translate(-9.2 -28.6)"><path d="M18.129,28.6a11.581,11.581,0,0,0-8.822,4.252.508.508,0,0,0-.106.3.42.42,0,0,0,.128.3,11.571,11.571,0,0,0,8.8,4.252,11.606,11.606,0,0,0,8.759-4.273.42.42,0,0,0,0-.553A11.639,11.639,0,0,0,18.129,28.6Zm-.043,8.163A3.614,3.614,0,1,1,21.7,33.149,3.611,3.611,0,0,1,18.086,36.763Zm-7.908-3.614a11.5,11.5,0,0,1,4.783-3.189,4.466,4.466,0,0,0,0,6.378A11.5,11.5,0,0,1,10.178,33.149Zm11.033,3.189a4.466,4.466,0,0,0,0-6.378,11.773,11.773,0,0,1,4.783,3.189A11.361,11.361,0,0,1,21.211,36.338Z" fill="#656565"/><path d="M42.479,37.254a.818.818,0,0,1-.787.638.807.807,0,0,1-.808-.808.827.827,0,0,1,.531-.765A2.831,2.831,0,0,0,40.076,36a2.976,2.976,0,1,0,2.976,2.976A3.206,3.206,0,0,0,42.479,37.254Z" transform="translate(-21.969 -5.827)" fill="#656565"/></g></svg>