<svg xmlns="http://www.w3.org/2000/svg" width="24.836" height="24.237" viewBox="0 0 24.836 24.237"><g transform="translate(-74.004 -130.214)"><g transform="translate(74.004 130.214)"><g transform="translate(0 0)"><path d="M95.445,141.673l-.966,1.081-2.32,2.6-2.818,3.154-2.427,2.717c-.393.44-.8.87-1.179,1.32l-.017.019h1.4l-1.189-1.331-2.649-2.966-2.726-3.052-1.449-1.622c-.571-.639-1.143-1.276-1.713-1.917a6.739,6.739,0,0,1-.489-.621l.155.225a6.858,6.858,0,0,1-.745-1.423l.1.265a7.318,7.318,0,0,1-.413-1.682l.035.3a7.569,7.569,0,0,1,0-1.777l-.035.3a7.355,7.355,0,0,1,.413-1.682l-.1.265a6.85,6.85,0,0,1,.745-1.423l-.155.225a6.392,6.392,0,0,1,1.059-1.181l-.2.174a5.813,5.813,0,0,1,1.271-.828l-.237.112a5.517,5.517,0,0,1,1.475-.453l-.264.04a5.425,5.425,0,0,1,1.609,0l-.264-.04a5.506,5.506,0,0,1,1.475.453L82.6,132.8a5.825,5.825,0,0,1,1.271.828l-.2-.174a13.23,13.23,0,0,1,1.152,1.212l.9,1.008a.932.932,0,0,0,1.4,0l.91-1.019a13.16,13.16,0,0,1,1.137-1.2l-.2.174a5.815,5.815,0,0,1,1.3-.842l-.237.112a5.5,5.5,0,0,1,1.456-.444l-.264.04a5.412,5.412,0,0,1,1.583,0l-.264-.04a5.511,5.511,0,0,1,1.506.459l-.237-.112a5.841,5.841,0,0,1,1.281.839l-.2-.174a6.41,6.41,0,0,1,1.045,1.169l-.155-.225a6.857,6.857,0,0,1,.745,1.423l-.1-.265a7.318,7.318,0,0,1,.413,1.682l-.035-.3a7.571,7.571,0,0,1,0,1.777l.035-.3a7.355,7.355,0,0,1-.413,1.682l.1-.265a6.85,6.85,0,0,1-.745,1.423l.155-.225a6.757,6.757,0,0,1-.489.622,1.223,1.223,0,0,0,0,1.571.934.934,0,0,0,1.4,0,8.2,8.2,0,0,0,1.982-5.031,8.369,8.369,0,0,0-.29-2.617,8.254,8.254,0,0,0-1.228-2.567,6.62,6.62,0,0,0-4.779-2.79,6,6,0,0,0-2.5.3,6.834,6.834,0,0,0-2.424,1.483c-.319.295-.6.634-.9.961l-.936,1.048-.06.068h1.4l-.891-1a13.69,13.69,0,0,0-1.107-1.174,6.562,6.562,0,0,0-2.93-1.558,6.308,6.308,0,0,0-3.217.121,6.719,6.719,0,0,0-2.847,1.8,7.891,7.891,0,0,0-1.657,2.765,8.18,8.18,0,0,0-.47,2.915,8.74,8.74,0,0,0,.648,3.122,7.512,7.512,0,0,0,1.369,2.178l.986,1.1.981,1.1,1.7,1.9,2.417,2.706,2.279,2.551,1.279,1.432.06.067a.932.932,0,0,0,1.4,0l.966-1.081,2.32-2.6,2.818-3.154,2.427-2.717c.393-.44.793-.873,1.179-1.32l.017-.019a1.222,1.222,0,0,0,0-1.571A.935.935,0,0,0,95.445,141.673Z" transform="translate(-74.004 -130.214)" fill="#869658"/></g></g></g></svg>