<svg xmlns="http://www.w3.org/2000/svg" width="9.243" height="18.526" viewBox="0 0 9.243 18.526">
  <path id="Path_12680" data-name="Path 12680" d="M816.631,174.523c.318.024.636.047.953.073.2.016.393.036.6.055V177.6c-.081,0-.157,0-.233,0-.626.01-1.255-.008-1.879.039a1.06,1.06,0,0,0-1.109,1.07c-.057.911-.014,1.828-.014,2.763h2.961l-.41,3.292h-2.567c-.006.066-.014.117-.014.169q0,3.979,0,7.958c0,.054.01.107.015.16H811.6c0-.054.01-.108.01-.162q0-3.969,0-7.939v-.178h-2.674v-3.3h2.674c0-.086,0-.156,0-.225.008-.97-.018-1.942.034-2.91a3.932,3.932,0,0,1,1.349-2.917,3.889,3.889,0,0,1,2.089-.864c.058-.007.115-.024.172-.036Z" transform="translate(-808.937 -174.523)" fill="#3c599b"/>
</svg>
