<svg xmlns="http://www.w3.org/2000/svg" width="21.849" height="13.664" viewBox="0 0 21.849 13.664">
  <path id="Path_12685" data-name="Path 12685" d="M1426.4,180.383h-6.446v2.343h3.858a3.221,3.221,0,0,1-.776,1.611,3.926,3.926,0,0,1-4.221,1.156,4.013,4.013,0,0,1-3-3.21,4.145,4.145,0,0,1,1.391-4.217,4.091,4.091,0,0,1,5.122-.257c.112.085.218.177.336.273l1.843-1.769c-.06-.057-.1-.1-.152-.143a6.523,6.523,0,0,0-5.051-1.615,6.8,6.8,0,0,0-5.937,4.931c-.122.442-.178.9-.264,1.354v1.025c.013.062.031.123.038.185a6.862,6.862,0,0,0,8.057,6.031,5.952,5.952,0,0,0,4.211-2.671,6.987,6.987,0,0,0,1.074-4.227C1426.471,180.914,1426.426,180.648,1426.4,180.383Zm6.581.212v-1.967h-1.992v1.979h-1.964v1.982H1431v1.969h2v-1.97h1.959V180.6Z" transform="translate(-1413.103 -174.523)" fill="#e04a3b"/>
</svg>
