<svg xmlns="http://www.w3.org/2000/svg" width="15.076" height="15.081" viewBox="0 0 15.076 15.081">
  <path id="Path_12683" data-name="Path 12683" d="M192.131,177.677a4.068,4.068,0,0,0-3.239-3.071,3.909,3.909,0,0,0-.833-.077c-2.227-.006-4.454-.014-6.681,0a4.054,4.054,0,0,0-3.678,2.137,3.925,3.925,0,0,0-.518,2.013c0,2.257-.007,4.514,0,6.771a4.109,4.109,0,0,0,2.88,3.951,8.483,8.483,0,0,0,.945.2h7.419c.225-.04.456-.063.676-.124a4.083,4.083,0,0,0,3.076-3.242c.034-.152.051-.308.075-.462v-7.421C192.215,178.129,192.193,177.9,192.131,177.677ZM184.7,186.2a4.132,4.132,0,1,1,4.147-4.124A4.137,4.137,0,0,1,184.7,186.2Zm4.4-7.258a1.255,1.255,0,1,1,0-2.509,1.255,1.255,0,0,1,0,2.509Zm-4.387-.118a3.242,3.242,0,1,0,3.245,3.245A3.244,3.244,0,0,0,184.715,178.821Zm4.378-1.434a.37.37,0,0,0-.356.358.376.376,0,0,0,.365.368.369.369,0,0,0,.361-.368A.363.363,0,0,0,189.093,177.388Z" transform="translate(-177.179 -174.522)" fill="#e4415c"/>
</svg>
