<svg xmlns="http://www.w3.org/2000/svg" width="16.559" height="16.273" viewBox="0 0 16.559 16.273">
  <path id="Path_12682" data-name="Path 12682" d="M-118.235,183.717a7.758,7.758,0,0,0-.29-1.746,3.131,3.131,0,0,0-1.979-2.2,4.986,4.986,0,0,0-2.486-.225,3.442,3.442,0,0,0-2.536,1.656,1.08,1.08,0,0,1-.089.1v-1.529H-128.9v11.015h3.42v-.2c0-1.732-.006-3.465,0-5.2a8.016,8.016,0,0,1,.1-1.235,1.734,1.734,0,0,1,1.673-1.632,1.579,1.579,0,0,1,1.947,1.357,6.115,6.115,0,0,1,.115,1.152c.012,1.856.007,3.712.008,5.568,0,.062,0,.125,0,.2h3.429v-6.811C-118.215,183.9-118.229,183.807-118.235,183.717Zm-13.849-9.067c-.145-.053-.3-.085-.448-.127h-.485a2.368,2.368,0,0,0-.93.384,1.989,1.989,0,0,0-.786,1.252c-.007.036-.021.071-.031.107v.484c.012.046.026.092.035.139a2.014,2.014,0,0,0,1.964,1.622,2.009,2.009,0,0,0,1.942-1.628A1.983,1.983,0,0,0-132.084,174.65Zm-2.4,15.847h3.411v-11.02h-3.411Z" transform="translate(134.763 -174.523)" fill="#0076b4"/>
</svg>
