<svg xmlns="http://www.w3.org/2000/svg" width="18.506" height="15.082" viewBox="0 0 18.506 15.082">
  <path id="Path_12681" data-name="Path 12681" d="M924.367,187.907a7.765,7.765,0,0,0,5.576-1.577,3.853,3.853,0,0,1-2.779-1.31,3.349,3.349,0,0,1-.742-1.332,4.127,4.127,0,0,0,1.639-.076,3.832,3.832,0,0,1-2.986-3.751c.269.1.53.222.8.3a4.513,4.513,0,0,0,.835.127,3.889,3.889,0,0,1-1.589-2.693,3.631,3.631,0,0,1,.493-2.362,10.855,10.855,0,0,0,7.844,3.969,4.588,4.588,0,0,1-.039-1.467,3.821,3.821,0,0,1,2.719-3.067,3.778,3.778,0,0,1,3.718.956.3.3,0,0,0,.232.063,7.218,7.218,0,0,0,2.095-.781c.046-.026.1-.048.177-.089a3.93,3.93,0,0,1-1.564,2.052,7.085,7.085,0,0,0,2.034-.539l.04.046c-.307.359-.6.732-.924,1.071-.259.268-.565.491-.84.744a.365.365,0,0,0-.115.236,10.942,10.942,0,0,1-4.743,9.369,9.8,9.8,0,0,1-4.531,1.708,11.189,11.189,0,0,1-4.594-.328,10.526,10.526,0,0,1-2.685-1.2A.867.867,0,0,1,924.367,187.907Z" transform="translate(-924.367 -174.523)" fill="#55aded"/>
</svg>
