<svg xmlns="http://www.w3.org/2000/svg" width="19.471" height="13.663" viewBox="0 0 19.471 13.663">
  <path id="Path_12684" data-name="Path 12684" d="M376.514,174.523c2,.078,4,.149,6,.239a10.746,10.746,0,0,1,1.408.167,2.464,2.464,0,0,1,2.065,2.156,23.365,23.365,0,0,1,.3,4.928c-.039,1.153-.149,2.3-.262,3.453a2.578,2.578,0,0,1-1.165,2.036,3.273,3.273,0,0,1-1.483.432,55.011,55.011,0,0,1-6.055.25c-2.034-.01-4.068-.072-6.1-.137a17.46,17.46,0,0,1-1.954-.2,2.445,2.445,0,0,1-2.1-2.071,20.589,20.589,0,0,1-.317-3.467,29.354,29.354,0,0,1,.2-4.573,8.272,8.272,0,0,1,.187-1.015,2.487,2.487,0,0,1,2.2-1.845,53.115,53.115,0,0,1,5.728-.291c.453-.008.906,0,1.359,0Zm-1.88,3.95V184.3l5.056-2.912Z" transform="translate(-366.827 -174.523)" fill="#cd211f"/>
</svg>
