<svg xmlns="http://www.w3.org/2000/svg" width="33.705" height="34.101" viewBox="0 0 33.705 34.101"><defs><style>.a{fill:#fff;fill-rule:evenodd;}</style></defs><g transform="translate(-163.809 -602.923)"><path class="a" d="M182.154,610.671l-.486.01-.444.052-.413.1-.372.113-.341.144-.31.165-.268.2-.258.216-.217.216-.2.247-.175.258-.134.267-.135.278-.1.278-.083.278-.062.277-.051.278-.031.268-.021.257v2.511h-1.932v3.488h1.932v9.889h4.059V620.57h2.738l.361-3.488h-3.1v-2.058l.021-.237.052-.185.072-.165.093-.123.114-.1.134-.062.124-.041.124-.021.124-.01h2.179v-3.4l-2.995-.01Zm-1.488-7.748,1.064.041,1.044.092,1.022.165,1.012.227.982.288.96.339.92.4.909.452.867.494.827.556.805.607.775.638.723.7.672.73.64.772.609.813.548.854.5.875.444.916.392.936.341.967.289,1,.217,1.009.155,1.049.093,1.05.042,1.08-.042,1.081-.093,1.049-.155,1.05-.217,1.008-.289,1-.341.967-.392.936-.444.916-.5.875-.548.854-.609.813-.64.771-.672.731-.723.689-.775.649-.805.607-.827.556-.867.493-.909.453-.92.4-.96.339-.982.288-1.012.227-1.022.164-1.044.093-1.064.041-1.064-.041-1.053-.093-1.023-.164-1-.227-.991-.288-.951-.339-.94-.4-.9-.453-.868-.493-.837-.556-.805-.607-.754-.649-.723-.689-.692-.731-.641-.771-.589-.813-.547-.854-.5-.875-.454-.916-.393-.936-.33-.967-.29-1-.217-1.008-.165-1.05-.1-1.049-.031-1.081.031-1.08.1-1.05.165-1.049.217-1.009.29-1,.33-.967.393-.936.454-.916.5-.875.547-.854.589-.813.641-.772.692-.73.723-.7.754-.638.805-.607.837-.556.868-.494.9-.452.94-.4.951-.339.991-.288,1-.227,1.023-.165,1.053-.092,1.064-.041Z"/></g></svg>