<svg xmlns="http://www.w3.org/2000/svg" width="33.695" height="34.065" viewBox="0 0 33.695 34.065"><defs><style>.a{fill:#fff;fill-rule:evenodd;}</style></defs><g transform="translate(-213.382 -602.941)"><path class="a" d="M226.545,622.38h.048l.373.024.349.065.349.081.333.244.309.228.286.2.254.2.206.211.175.2.127.22.087.236.032.22.016.211-.016.374-.079.325-.111.3-.159.268-.2.228-.246.211-.294.171-.333.155-.381.106-.428.073-.468.057-.516.008-.428-.016-.4-.081-.389-.114-.357-.155-.317-.2-.286-.236-.238-.26-.2-.293-.151-.309-.1-.333-.016-.358.032-.325.1-.317.167-.3.222-.268.27-.26.309-.228.357-.2.4-.155.421-.122.436-.073.452-.033Z"/><path class="a" d="M225.981,612.938h.047l.323.056.308.1.315.176.292.232.26.28.237.32.205.359.173.391.134.431.079.431.024.368v.336l-.039.336-.079.3-.1.288-.134.256-.158.224L227.7,618l-.189.136-.2.088-.213.064-.237.016h-.016l-.323-.048-.308-.12-.315-.184-.276-.232-.268-.288-.244-.328-.205-.368-.181-.391-.134-.423-.079-.447-.024-.352v-.344l.039-.32.063-.3.11-.28.134-.256.15-.224.213-.2.237-.152.26-.088.284-.032Z"/><path class="a" d="M235.155,615.084l-.144.032-.128.088-.088.128-.032.16v2.876h-2.841l-.16.032-.128.087-.088.128-.024.144v.823l.024.16.088.128.128.087.16.032h2.841v2.876l.032.144.088.128.128.088.144.032h.808l.16-.032.12-.088.08-.128.032-.144v-2.876h2.856l.152-.032.12-.087.088-.128.032-.16v-.823l-.032-.144-.088-.128-.12-.087-.152-.032h-2.856v-2.876l-.032-.16-.08-.128-.12-.088-.16-.032Zm-8.6-3.683-.544.032-.552.1-.56.16-.472.2-.457.239-.416.272-.392.311-.336.344-.3.367-.256.384-.2.415-.144.416-.1.439-.032.44.032.519.1.487.136.472.2.439.256.415.3.368.336.335.368.3.416.248.449.2.48.152.512.1.52.04-.048.28-.024.263.032.344.088.335.16.32h-.064l-.56.024-.536.072-.528.111-.505.144-.48.192-.464.224-.416.255-.392.288-.352.32-.312.351-.264.376-.208.407-.168.423-.112.44-.032.423.024.312.064.3.1.288.136.288.208.319.256.3.3.271.352.248.384.232.424.207.472.176.5.152.553.12.568.08.584.056.6.023.536-.023.512-.056.512-.08.48-.128.528-.184.488-.216.449-.263.4-.3.36-.319.3-.368.264-.383.216-.4.144-.431.1-.448.032-.455-.024-.471-.04-.432-.088-.407-.12-.384-.176-.351-.2-.344-.24-.319-.3-.3-.344-.3-.392-.3-.2-.152-.192-.159-.176-.168-.16-.16-.136-.16-.128-.136-.08-.127-.064-.112-.024-.08v-.1l.016-.1.016-.088.032-.1.056-.1.072-.1.1-.12.136-.128.168-.144.216-.176.353-.319.32-.328.272-.351.224-.36.168-.383.128-.4.08-.4.024-.415-.024-.5-.072-.463-.128-.448-.16-.407-.2-.383-.24-.328h.4l.128-.024.1-.056,1.12-.815.1-.088.048-.119.024-.112-.024-.128-.064-.112-.08-.1-.1-.048-.128-.024Zm3.681-8.46,1.064.048,1.04.1,1.024.16,1.016.223.977.288.96.335.928.408.9.447.864.5.832.551.8.607.768.639.728.7.68.735.64.767.6.807.544.855.5.87.449.919.4.935.336.967.28.99.224,1.015.16,1.046.1,1.055.032,1.07-.032,1.079-.1,1.054-.16,1.047-.224,1.007-.28.99-.336.975-.4.935-.449.918-.5.871-.544.855-.6.807-.64.767-.68.735-.728.7-.768.639-.8.607-.832.551-.864.5-.9.447-.928.4-.96.344-.977.287-1.016.224-1.024.16-1.04.1-1.064.04-1.065-.04-1.056-.1-1.024-.16-1-.224-.992-.287-.945-.344-.936-.4-.9-.447-.88-.5-.832-.551-.8-.607-.76-.639-.729-.7-.68-.735-.648-.767-.584-.807-.552-.855-.5-.871-.448-.918-.392-.935-.336-.975-.288-.99-.217-1.007-.16-1.047-.1-1.054-.032-1.079.032-1.07.1-1.055.16-1.046.217-1.015.288-.99.336-.967.392-.935.448-.919.5-.87.552-.855.584-.807.648-.767.68-.735.729-.7.76-.639.8-.607.832-.551.88-.5.9-.447.936-.408.945-.335.992-.288,1-.223,1.024-.16,1.056-.1,1.065-.048Z"/></g></svg>