<svg xmlns="http://www.w3.org/2000/svg" width="15.4" height="14" viewBox="0 0 15.4 14">
  <path id="Path_595" data-name="Path 595" d="M1146.48,346.875h6.3a1.388,1.388,0,0,0,1.288-.854l2.113-4.935a1.375,1.375,0,0,0,.1-.511v-1.4a1.4,1.4,0,0,0-1.4-1.4h-4.42l.668-3.2.019-.224a1.062,1.062,0,0,0-.306-.742l-.743-.735-4.614,4.613a1.4,1.4,0,0,0-.4.987v7A1.4,1.4,0,0,0,1146.48,346.875Zm0-8.4,3.035-3.038-.937,3.738h6.3v1.4l-2.1,4.9h-6.3Zm-5.6,0h2.8v8.4h-2.8Z" transform="translate(-1140.88 -332.875)" fill="#fff"/>
</svg>
