<svg xmlns="http://www.w3.org/2000/svg" width="17.262" height="22.5" viewBox="0 0 17.262 22.5"><defs><style>.a{fill:#fff;stroke:#356083;stroke-width:0.5px;}</style></defs><path class="a" d="M12.381,17.762a2.1,2.1,0,1,1,2.1-2.1,2.095,2.095,0,0,1-2.1,2.1M18.667,20.9V10.429H6.1V20.9H18.667m0-12.571a2.1,2.1,0,0,1,2.1,2.1V20.9a2.1,2.1,0,0,1-2.1,2.1H6.1A2.1,2.1,0,0,1,4,20.9V10.429a2.088,2.088,0,0,1,2.1-2.1H7.143v-2.1a5.238,5.238,0,0,1,10.476,0v2.1h1.048M12.381,3.1A3.143,3.143,0,0,0,9.238,6.238v2.1h6.286v-2.1A3.143,3.143,0,0,0,12.381,3.1Z" transform="translate(-3.75 -0.75)"/></svg>