<svg xmlns="http://www.w3.org/2000/svg" width="18.964" height="16.857" viewBox="0 0 18.964 16.857"><defs><style>.a{fill:#333;}</style></defs><path class="a" d="M6.848,0A2.1,2.1,0,0,0,4.813,1.587c-.026,0-.046-.007-.072-.007A2.109,2.109,0,0,0,2.634,3.687a1.942,1.942,0,0,0,.056.461A2.611,2.611,0,0,0,1.327,7.734a2.624,2.624,0,0,0,.3,4.708,2.413,2.413,0,0,0-.046.464,2.369,2.369,0,0,0,2.371,2.371,2.232,2.232,0,0,0,.4-.04,2.365,2.365,0,0,0,4.609-.751V2.107A2.109,2.109,0,0,0,6.848,0ZM18.964,10.009a2.62,2.62,0,0,0-1.327-2.275,2.591,2.591,0,0,0,.273-1.149,2.634,2.634,0,0,0-1.636-2.436A2.088,2.088,0,0,0,14.223,1.58c-.026,0-.049.007-.072.007a2.1,2.1,0,0,0-4.142.52V14.487a2.365,2.365,0,0,0,4.609.751,2.232,2.232,0,0,0,.4.04,2.369,2.369,0,0,0,2.371-2.371,2.413,2.413,0,0,0-.046-.464A2.634,2.634,0,0,0,18.964,10.009Z"/></svg>