<svg xmlns="http://www.w3.org/2000/svg" width="15.967" height="18.949" viewBox="0 0 15.967 18.949">
  <path id="certified" d="M469.847,17.89l1.692,3.628-1.891-.052-1.177,1.482L466.954,19.7l0,0a.6.6,0,0,1-.832.166l-.636-.426a.973.973,0,0,0-1,0l-.636.426a.6.6,0,0,1-.833-.166l0,0L461.5,22.949l-1.176-1.482-1.892.052,1.692-3.628-.055-.281a.974.974,0,0,0-.706-.706l-.751-.148a.6.6,0,0,1-.472-.706l.15-.751a.974.974,0,0,0-.382-.923l-.638-.424a.6.6,0,0,1-.166-.832l.427-.636a.976.976,0,0,0,0-1l-.427-.636a.6.6,0,0,1,.166-.833l.638-.424a.973.973,0,0,0,.382-.923l-.15-.751a.6.6,0,0,1,.472-.706l.751-.148a.975.975,0,0,0,.706-.706l.148-.751a.6.6,0,0,1,.706-.472l.75.151a.975.975,0,0,0,.923-.382l.424-.637a.6.6,0,0,1,.833-.166l.636.426a.973.973,0,0,0,1,0l.636-.426a.6.6,0,0,1,.832.166l.424.637a.975.975,0,0,0,.923.382l.75-.151a.6.6,0,0,1,.706.472l.148.751a.975.975,0,0,0,.706.706l.751.148a.6.6,0,0,1,.472.706l-.15.751a.974.974,0,0,0,.382.923l.637.424a.6.6,0,0,1,.166.833l-.427.636a.975.975,0,0,0,0,1l.427.636a.6.6,0,0,1-.166.832l-.637.424a.973.973,0,0,0-.382.923l.15.751a.6.6,0,0,1-.472.706l-.751.148a.975.975,0,0,0-.706.706Zm-.285.8a.6.6,0,0,1-.513.138l-.75-.151a.975.975,0,0,0-.923.382l-.032.05,1.261,2.705.761-.958,1.222.033Zm-6.937.419-.033-.05a.975.975,0,0,0-.923-.382l-.75.151a.6.6,0,0,1-.513-.138l-1.026,2.2,1.223-.033.76.958Zm3.709-.343s.391-.586.391-.586a1.442,1.442,0,0,1,1.414-.586l.69.138s.137-.691.137-.691a1.442,1.442,0,0,1,1.082-1.082l.69-.136s-.138-.691-.138-.691a1.441,1.441,0,0,1,.585-1.414l.586-.39s-.392-.585-.392-.585a1.441,1.441,0,0,1,0-1.53l.392-.584s-.586-.391-.586-.391A1.442,1.442,0,0,1,470.6,8.83l.138-.69S470.046,8,470.046,8a1.441,1.441,0,0,1-1.082-1.082l-.137-.69s-.691.138-.691.138a1.442,1.442,0,0,1-1.414-.586l-.389-.586s-.586.392-.586.392a1.442,1.442,0,0,1-1.53,0l-.584-.392s-.391.586-.391.586a1.442,1.442,0,0,1-1.413.586l-.69-.138s-.137.691-.137.691A1.442,1.442,0,0,1,459.921,8l-.69.136s.138.691.138.691a1.441,1.441,0,0,1-.585,1.414l-.586.39s.392.585.392.585a1.443,1.443,0,0,1,0,1.53l-.392.584s.586.391.586.391a1.443,1.443,0,0,1,.585,1.414l-.138.69s.691.137.691.137A1.441,1.441,0,0,1,461,17.046l.137.69s.691-.138.691-.138a1.442,1.442,0,0,1,1.413.586l.39.586s.586-.392.586-.392a1.442,1.442,0,0,1,1.53,0Zm-1.35-1.4a5.386,5.386,0,1,1,5.387-5.386A5.386,5.386,0,0,1,464.983,17.37Zm0-.6a4.788,4.788,0,1,0-4.788-4.788A4.788,4.788,0,0,0,464.983,16.771Zm-2.213-4.724.18-.18a.3.3,0,0,1,.418,0l.78.78a.3.3,0,0,0,.421,0l1.969-1.969a.294.294,0,0,1,.421,0l.18.18a.3.3,0,0,1-.006.424l-2.355,2.355a.6.6,0,0,1-.847,0l-1.157-1.157A.3.3,0,0,1,462.771,12.047Z" transform="translate(-457 -4)" fill-rule="evenodd"/>
</svg>
