<svg xmlns="http://www.w3.org/2000/svg" width="22.156" height="14.584" viewBox="0 0 22.156 14.584">
  <path id="degree" d="M22.5,9.373c-.016-.153-.117-.432-.618-.579L12.581,6.066a4.376,4.376,0,0,0-2.053,0l-9.3,2.728c-.5.147-.6.427-.618.579s.026.447.487.695l3.5,1.882V18.1a.291.291,0,0,0,.1.22c.093.078,2.322,1.928,6.861,1.928s6.769-1.85,6.862-1.928a.288.288,0,0,0,.1-.22V11.949L19.54,11.4a3.527,3.527,0,0,1,.782,2.4v.865a1.054,1.054,0,0,0-.644,1.533,1.312,1.312,0,0,0-.308.845V19.3a.287.287,0,0,0,.287.288h1.9a.288.288,0,0,0,.289-.288V17.048a1.309,1.309,0,0,0-.309-.844,1.053,1.053,0,0,0-.645-1.534v-.865a4.3,4.3,0,0,0-.831-2.688l1.953-1.051C22.478,9.821,22.52,9.527,22.5,9.373Zm-1.231,9.644H19.945V17.048a.72.72,0,0,1,.139-.43,1.031,1.031,0,0,0,1.05,0,.734.734,0,0,1,.139.43v1.969ZM21.1,15.693a.491.491,0,1,1-.491-.491A.493.493,0,0,1,21.1,15.693Zm-3.16,2.266a11,11,0,0,1-6.387,1.713A11,11,0,0,1,5.168,17.96v-5.7l5.383,2.893a2.338,2.338,0,0,0,2.007,0l5.383-2.893v5.7Zm3.805-8.4L19.59,10.72a1.034,1.034,0,0,0-.446-.129c-.7-.028-7.486-.866-7.554-.874a.283.283,0,0,0-.322.25.288.288,0,0,0,.251.322c.256.031,5.777.713,7.285.853l-6.518,3.5a1.852,1.852,0,0,1-1.462,0L1.363,9.56a1.463,1.463,0,0,1-.179-.119.537.537,0,0,1,.2-.095L10.69,6.618a3.833,3.833,0,0,1,1.728,0l9.306,2.727a1.69,1.69,0,0,1,.2.079A.5.5,0,0,1,21.746,9.56Z" transform="translate(-0.477 -5.79)" fill="#929292" stroke="#929292" stroke-width="0.25"/>
</svg>
