<svg xmlns="http://www.w3.org/2000/svg" width="13.005" height="15.434" viewBox="0 0 13.005 15.434">
  <path id="certified" d="M467.464,15.313l1.378,2.955-1.54-.042-.959,1.207-1.235-2.649,0,0a.49.49,0,0,1-.678.135l-.518-.347a.793.793,0,0,0-.813,0l-.518.347a.49.49,0,0,1-.678-.135l0,0-1.235,2.649-.958-1.207-1.541.042,1.378-2.955-.045-.229a.793.793,0,0,0-.575-.575l-.612-.121a.49.49,0,0,1-.384-.575l.122-.611a.793.793,0,0,0-.311-.751l-.519-.346a.49.49,0,0,1-.135-.678l.348-.518a.8.8,0,0,0,0-.813l-.348-.518a.491.491,0,0,1,.135-.678l.519-.346a.793.793,0,0,0,.311-.751l-.122-.611a.49.49,0,0,1,.384-.575l.612-.121a.794.794,0,0,0,.575-.575l.121-.612a.49.49,0,0,1,.575-.384l.611.123a.794.794,0,0,0,.752-.311l.346-.519a.49.49,0,0,1,.678-.135l.518.347a.793.793,0,0,0,.813,0l.518-.347a.49.49,0,0,1,.678.135l.346.519a.794.794,0,0,0,.752.311l.611-.123a.49.49,0,0,1,.575.384l.121.612a.794.794,0,0,0,.575.575l.612.121a.49.49,0,0,1,.384.575l-.122.611a.793.793,0,0,0,.311.751l.519.346a.49.49,0,0,1,.135.678l-.348.518a.794.794,0,0,0,0,.813l.348.518a.49.49,0,0,1-.135.678l-.519.346a.792.792,0,0,0-.311.751l.122.611a.49.49,0,0,1-.384.575l-.612.121a.794.794,0,0,0-.575.575Zm-.232.654a.489.489,0,0,1-.418.113l-.611-.123a.794.794,0,0,0-.752.311l-.026.04,1.027,2.2.62-.781,1,.027Zm-5.65.342-.027-.04a.794.794,0,0,0-.752-.311l-.611.123a.488.488,0,0,1-.418-.113l-.835,1.792,1-.027.619.781Zm3.021-.279s.318-.477.318-.477a1.174,1.174,0,0,1,1.151-.477l.562.113s.112-.563.112-.563a1.174,1.174,0,0,1,.881-.881l.562-.111s-.112-.563-.112-.563a1.173,1.173,0,0,1,.476-1.151l.477-.318s-.319-.477-.319-.477a1.174,1.174,0,0,1,0-1.246l.319-.476s-.477-.319-.477-.319a1.174,1.174,0,0,1-.476-1.151l.112-.562s-.563-.112-.563-.112a1.174,1.174,0,0,1-.881-.881l-.111-.562s-.563.112-.563.112a1.174,1.174,0,0,1-1.151-.477l-.317-.477s-.477.319-.477.319a1.174,1.174,0,0,1-1.246,0l-.476-.319s-.319.477-.319.477a1.174,1.174,0,0,1-1.151.477l-.562-.113s-.112.563-.112.563a1.174,1.174,0,0,1-.881.881l-.562.111s.112.563.112.563a1.174,1.174,0,0,1-.477,1.151l-.477.318s.319.477.319.477a1.175,1.175,0,0,1,0,1.246l-.319.476s.477.319.477.319a1.175,1.175,0,0,1,.477,1.151l-.113.562s.563.112.563.112a1.173,1.173,0,0,1,.881.881l.111.562s.563-.112.563-.112a1.174,1.174,0,0,1,1.151.477l.317.477s.477-.319.477-.319a1.174,1.174,0,0,1,1.246,0Zm-1.1-1.141a4.387,4.387,0,1,1,4.387-4.387A4.387,4.387,0,0,1,463.5,14.889Zm0-.487a3.9,3.9,0,1,0-3.9-3.9A3.9,3.9,0,0,0,463.5,14.4Zm-1.8-3.848.147-.146a.24.24,0,0,1,.34,0l.635.635a.243.243,0,0,0,.343,0l1.6-1.6a.239.239,0,0,1,.343,0l.147.146a.245.245,0,0,1,0,.346l-1.918,1.918a.486.486,0,0,1-.69,0L461.7,10.9A.244.244,0,0,1,461.7,10.554Z" transform="translate(-457 -4)" fill="#929292" fill-rule="evenodd"/>
</svg>
