<svg xmlns="http://www.w3.org/2000/svg" width="8.159" height="6.527" viewBox="0 0 8.159 6.527">
  <path id="Icon_awesome-eye-slash" data-name="Icon awesome-eye-slash" d="M4.08,5.1A1.829,1.829,0,0,1,2.258,3.4L.921,2.369a4.249,4.249,0,0,0-.468.709.412.412,0,0,0,0,.372A4.089,4.089,0,0,0,4.08,5.711a3.96,3.96,0,0,0,.993-.133l-.662-.512A1.838,1.838,0,0,1,4.08,5.1Zm4,.741L6.671,4.751a4.223,4.223,0,0,0,1.036-1.3.412.412,0,0,0,0-.372A4.089,4.089,0,0,0,4.08.816,3.928,3.928,0,0,0,2.2,1.3L.58.043A.2.2,0,0,0,.293.079L.043.4A.2.2,0,0,0,.079.687l7.5,5.8a.2.2,0,0,0,.286-.036l.25-.322A.2.2,0,0,0,8.08,5.84ZM5.738,4.03l-.5-.387a1.208,1.208,0,0,0-1.48-1.554.607.607,0,0,1,.119.36.6.6,0,0,1-.02.127L2.918,1.85A1.814,1.814,0,0,1,4.08,1.428,1.835,1.835,0,0,1,5.915,3.263a1.792,1.792,0,0,1-.177.766Z" transform="translate(0 0)" fill="#356083"/>
</svg>
