<svg xmlns="http://www.w3.org/2000/svg" width="22.161" height="19.203" viewBox="0 0 22.161 19.203">
  <path id="Path_2164" data-name="Path 2164" d="M29.27,14.464a.266.266,0,0,0-.45.168c0,.056-.165,1.413-2.153,1.815a2.177,2.177,0,0,0-1.538.992,2.57,2.57,0,0,0-.266,1.695,1.33,1.33,0,0,0-.514.138,9.294,9.294,0,0,0-6.889-2.927c-4.84,0-8.781,3.459-8.781,7.7s3.938,7.7,8.781,7.7c.221,0,.439,0,.657-.021h0a1.054,1.054,0,0,0,.532,1.424,1.4,1.4,0,0,0,.7.2.883.883,0,0,0,.8-.434l1.426-2.065a8.87,8.87,0,0,0,1.211-.681,1.53,1.53,0,0,0,.681-1.33,1.551,1.551,0,0,0-.12-.564l4.393-6.346a1.1,1.1,0,0,0,.093-.883c1.628-.907,2.544-1.99,2.719-3.225A4.316,4.316,0,0,0,29.27,14.464ZM17.474,31.2c-4.547,0-8.249-3.212-8.249-7.163s3.7-7.163,8.249-7.163a8.773,8.773,0,0,1,6.49,2.751.837.837,0,0,0-.059.088L22.753,22.1a3.459,3.459,0,0,0-2.395,3.289,1.916,1.916,0,0,0,.327,1.03L18.4,31.148C18.094,31.177,17.785,31.2,17.474,31.2ZM22.4,22.833l-1.437,2.985a1.205,1.205,0,0,1-.085-.428A2.927,2.927,0,0,1,22.4,22.833Zm.09,6.886c-.08.053-.162.1-.242.149l.686-.992A1.008,1.008,0,0,1,22.492,29.719Zm4.79-8.084L19.707,32.611v.016a.343.343,0,0,1-.3.178.84.84,0,0,1-.474-.125c-.192-.112-.511-.4-.327-.716l5.766-12.006a.679.679,0,0,1,.639-.3h.072a3.033,3.033,0,0,1,2.1,1.221.716.716,0,0,1,.1.753Zm2.746-3.89c-.149,1.064-.963,2-2.421,2.82a3.265,3.265,0,0,0-1.064-.963,3.459,3.459,0,0,0-1.11-.423,2.129,2.129,0,0,1,.165-1.458,1.666,1.666,0,0,1,1.187-.742,3.047,3.047,0,0,0,2.435-1.767A3.53,3.53,0,0,1,30.028,17.745Z" transform="translate(-8.555 -14.261)" fill="#929292" stroke="#929292" stroke-width="0.25"/>
</svg>
