<svg xmlns="http://www.w3.org/2000/svg" width="14.355" height="14.356" viewBox="0 0 14.355 14.356">
  <g id="Group_2083" data-name="Group 2083" transform="translate(0)">
    <path id="Path_2365" data-name="Path 2365" d="M1424.806,534.022a3.428,3.428,0,1,0,3.428,3.427A3.432,3.432,0,0,0,1424.806,534.022Zm2.919,3.427a2.921,2.921,0,1,1-2.922-2.922,2.923,2.923,0,0,1,2.922,2.922Z" transform="translate(-1417.629 -530.16)" fill="#fff"/>
    <path id="Path_2366" data-name="Path 2366" d="M1426.749,529.063h-6.016a4.174,4.174,0,0,0-4.17,4.17v6.016a4.174,4.174,0,0,0,4.17,4.17h6.016a4.175,4.175,0,0,0,4.17-4.17v-6.016A4.175,4.175,0,0,0,1426.749,529.063Zm1.478,2.133a.561.561,0,1,1-.561.561A.561.561,0,0,1,1428.226,531.2Zm-4.485,9.025a3.868,3.868,0,1,1,3.868-3.869A3.873,3.873,0,0,1,1423.741,540.22Z" transform="translate(-1416.563 -529.063)" fill="#fff"/>
  </g>
</svg>
