<svg xmlns="http://www.w3.org/2000/svg" width="7.053" height="6.412" viewBox="0 0 7.053 6.412">
  <path id="Path_595" data-name="Path 595" d="M1143.444,339.286h2.884a.636.636,0,0,0,.59-.391l.968-2.26a.63.63,0,0,0,.046-.234v-.641a.643.643,0,0,0-.641-.641h-2.024l.306-1.465.009-.1a.486.486,0,0,0-.14-.34l-.34-.337-2.113,2.113a.64.64,0,0,0-.185.452v3.206A.642.642,0,0,0,1143.444,339.286Zm0-3.847,1.39-1.391-.429,1.712h2.886v.641l-.963,2.244h-2.884Zm-2.565,0h1.282v3.847h-1.282Z" transform="translate(-1140.88 -332.875)" fill="#356083"/>
</svg>
