<svg xmlns="http://www.w3.org/2000/svg" xmlns:xlink="http://www.w3.org/1999/xlink" width="110" height="110" viewBox="0 0 110 110">
  <defs>
    <linearGradient id="linear-gradient" x1="0.5" x2="0.5" y2="1" gradientUnits="objectBoundingBox">
      <stop offset="0" stop-color="#869658"/>
      <stop offset="1" stop-color="#5c6d2e"/>
    </linearGradient>
    <filter id="Path_1840" x="0" y="0" width="110" height="110" filterUnits="userSpaceOnUse">
      <feOffset dy="8" input="SourceAlpha"/>
      <feGaussianBlur stdDeviation="10" result="blur"/>
      <feFlood flood-opacity="0.161"/>
      <feComposite operator="in" in2="blur"/>
      <feComposite in="SourceGraphic"/>
    </filter>
  </defs>
  <g id="Group_1968" data-name="Group 1968" transform="translate(-232 -288)">
    <g transform="matrix(1, 0, 0, 1, 232, 288)" filter="url(#Path_1840)">
      <path id="Path_1840-2" data-name="Path 1840" d="M25,0A25,25,0,1,1,0,25,25,25,0,0,1,25,0Z" transform="translate(30 22)" fill="url(#linear-gradient)"/>
    </g>
    <path id="Icon_material-chat" data-name="Icon material-chat" d="M18.171,3H4.686A1.683,1.683,0,0,0,3.008,4.686L3,19.857l3.371-3.371h11.8A1.691,1.691,0,0,0,19.857,14.8V4.686A1.691,1.691,0,0,0,18.171,3ZM6.371,8.9H16.486v1.686H6.371Zm6.743,4.214H6.371V11.429h6.743Zm3.371-5.057H6.371V6.371H16.486Z" transform="translate(275.691 324.128)" fill="#fff"/>
  </g>
</svg>
