<svg xmlns="http://www.w3.org/2000/svg" xmlns:xlink="http://www.w3.org/1999/xlink" width="110" height="110" viewBox="0 0 110 110">
  <defs>
    <linearGradient id="linear-gradient" x1="0.5" x2="0.5" y2="1" gradientUnits="objectBoundingBox">
      <stop offset="0" stop-color="#869658"/>
      <stop offset="1" stop-color="#5c6d2e"/>
    </linearGradient>
    <filter id="Path_2217" x="0" y="0" width="110" height="110" filterUnits="userSpaceOnUse">
      <feOffset dy="8" input="SourceAlpha"/>
      <feGaussianBlur stdDeviation="10" result="blur"/>
      <feFlood flood-opacity="0.161"/>
      <feComposite operator="in" in2="blur"/>
      <feComposite in="SourceGraphic"/>
    </filter>
  </defs>
  <g id="Group_1970" data-name="Group 1970" transform="translate(-232 -288)">
    <g transform="matrix(1, 0, 0, 1, 232, 288)" filter="url(#Path_2217)">
      <path id="Path_2217-2" data-name="Path 2217" d="M25,0A25,25,0,1,1,0,25,25,25,0,0,1,25,0Z" transform="translate(30 22)" fill="url(#linear-gradient)"/>
    </g>
    <g id="pay2" transform="translate(264.43 311.21)">
      <path id="Path_2342" data-name="Path 2342" d="M21.271,34.725l.171,1.324a3.769,3.769,0,0,0,.792-.362A6.412,6.412,0,0,0,21.271,34.725Z" transform="translate(-4.656 -7.711)" fill="#fff"/>
      <path id="Path_2343" data-name="Path 2343" d="M28.856,27.874a.981.981,0,0,0-.9.751,1.577,1.577,0,0,0-.034.259l2.675-.341-.218-.212A1.837,1.837,0,0,0,28.856,27.874Z" transform="translate(-6.769 -5.528)" fill="#fff"/>
      <path id="Path_2344" data-name="Path 2344" d="M26.72,18.654l-7.656-1.7L14.3,22.871c.321,1.16,1.836,2.675,4.258,4.217l.1.068c.143.1.28.184.409.259a7.555,7.555,0,0,1,2.061,1.836c.116.15.259.334.409.546.519.7,1.235,1.706,1.774,2.47.293.409.532.751.669.935a1.216,1.216,0,0,0,.485.389h.007a.217.217,0,0,0,.061.02,1.4,1.4,0,0,0,1.665-.369,1.249,1.249,0,0,0,.041-1.542,46.25,46.25,0,0,0-3.221-4.122,2.864,2.864,0,0,1-.689-1.208,2.779,2.779,0,0,1-.014-1.583,2.344,2.344,0,0,1,1.979-1.72,3.207,3.207,0,0,1,2.689.805l1.024.989L32,24.352l-3.753-4.763A2.706,2.706,0,0,0,26.72,18.654Z" transform="translate(-2.443 -2.067)" fill="#fff"/>
      <path id="Path_2345" data-name="Path 2345" d="M37.565,29.215,26.476,30.627a48.628,48.628,0,0,1,3.282,4.217A2.619,2.619,0,0,1,29.635,38a2.687,2.687,0,0,1-2.109,1,2.922,2.922,0,0,1-1.085-.212,1.329,1.329,0,0,1-.171-.061,2.615,2.615,0,0,1-1.017-.832c-.13-.184-.375-.525-.676-.942-.409-.58-.914-1.29-1.365-1.911a5.173,5.173,0,0,1-1.433.628l.4,3.159a5.13,5.13,0,0,1,4.92,3.8L39.086,41.1a5.131,5.131,0,0,1,3.8-4.92l-.4-3.159A5.136,5.136,0,0,1,37.565,29.215Zm-4.108,10.12.116.914a.679.679,0,0,1-.587.764.422.422,0,0,1-.089.007.678.678,0,0,1-.676-.594l-.116-.921a2.115,2.115,0,0,1-1.453-1.024.673.673,0,0,1,.246-.928.683.683,0,0,1,.935.246.8.8,0,1,0,1.181-1.037.81.81,0,0,0-.594-.164,2.131,2.131,0,0,1-1.6-.43A2.169,2.169,0,0,1,30,34.728a2.146,2.146,0,0,1,1.215-2.218L31.1,31.6a.681.681,0,1,1,1.351-.171l.116.9A2.157,2.157,0,0,1,34.091,33.5a.684.684,0,0,1-1.228.6.8.8,0,0,0-.819-.444.8.8,0,0,0,.2,1.59,2.172,2.172,0,0,1,2.423,1.877A2.158,2.158,0,0,1,33.457,39.334Z" transform="translate(-4.818 -5.961)" fill="#fff"/>
      <path id="Path_2346" data-name="Path 2346" d="M6.952,19.712l1.9,1.392a.84.84,0,0,0,1.14-.15l5.821-7.233a.036.036,0,0,1,.014-.027l.409-.5A.835.835,0,0,0,16.075,12l-1.9-1.392a.827.827,0,0,0-1.14.15L6.795,18.525A.824.824,0,0,0,6.952,19.712Z" fill="#fff"/>
      <path id="Path_2347" data-name="Path 2347" d="M50.019,29.265a.831.831,0,0,0-.928-.723l-2.17.28A3.766,3.766,0,0,0,50.3,31.435Z" transform="translate(-12.803 -5.745)" fill="#fff"/>
      <path id="Path_2348" data-name="Path 2348" d="M52.148,43.595l-.28-2.17a3.676,3.676,0,0,0-1.829,1.283,3.73,3.73,0,0,0-.471.792.831.831,0,0,0,.867,1.153l.989-.13A.831.831,0,0,0,52.148,43.595Z" transform="translate(-13.621 -9.839)" fill="#fff"/>
      <path id="Path_2349" data-name="Path 2349" d="M23.829,48.2l2.17-.28A3.783,3.783,0,0,0,22.621,45.3l.28,2.17A.831.831,0,0,0,23.829,48.2Z" transform="translate(-5.085 -11.071)" fill="#fff"/>
    </g>
  </g>
</svg>
