<svg xmlns="http://www.w3.org/2000/svg" width="11.718" height="9.942" viewBox="0 0 11.718 9.942">
  <path id="Shape" d="M11.718,1.176a4.642,4.642,0,0,1-1.38.4A2.505,2.505,0,0,0,11.394.184a4.723,4.723,0,0,1-1.527.61A2.351,2.351,0,0,0,8.112,0a2.459,2.459,0,0,0-2.4,2.51,2.625,2.625,0,0,0,.062.572A6.733,6.733,0,0,1,.816.459,2.577,2.577,0,0,0,.491,1.721,2.541,2.541,0,0,0,1.56,3.811,2.327,2.327,0,0,1,.472,3.5v.031A2.489,2.489,0,0,0,2.4,5.989a2.337,2.337,0,0,1-.633.088,2.212,2.212,0,0,1-.453-.047A2.421,2.421,0,0,0,3.559,7.774,4.694,4.694,0,0,1,.573,8.847,4.893,4.893,0,0,1,0,8.813a6.586,6.586,0,0,0,3.685,1.13A6.958,6.958,0,0,0,10.523,2.8l-.008-.325A4.923,4.923,0,0,0,11.718,1.176Z" fill="#fff"/>
</svg>
