<svg xmlns="http://www.w3.org/2000/svg" width="16.448" height="11.565" viewBox="0 0 16.448 11.565">
  <path id="Icon_awesome-youtube" data-name="Icon awesome-youtube" d="M17.155,6.31A2.067,2.067,0,0,0,15.7,4.846,48.842,48.842,0,0,0,9.274,4.5a48.842,48.842,0,0,0-6.426.346A2.067,2.067,0,0,0,1.394,6.31a21.681,21.681,0,0,0-.344,3.985,21.681,21.681,0,0,0,.344,3.985,2.036,2.036,0,0,0,1.454,1.44,48.842,48.842,0,0,0,6.426.346,48.842,48.842,0,0,0,6.426-.346,2.036,2.036,0,0,0,1.454-1.44,21.681,21.681,0,0,0,.344-3.985A21.681,21.681,0,0,0,17.155,6.31ZM7.592,12.74V7.849l4.3,2.446-4.3,2.446Z" transform="translate(-1.05 -4.5)" fill="#fff"/>
</svg>
