<svg xmlns="http://www.w3.org/2000/svg" width="32.346" height="19.1" viewBox="0 0 32.346 19.1">
  <path id="community1" d="M27.224,37.142a3.629,3.629,0,1,0-4.08,0,6.122,6.122,0,0,0-1.822,1.014,8.6,8.6,0,0,0-3.228-1.771,4.986,4.986,0,1,0-4.841,0,8.6,8.6,0,0,0-3.228,1.771A6.122,6.122,0,0,0,8.2,37.142a3.632,3.632,0,1,0-4.08,0A6.174,6.174,0,0,0,0,42.948a.49.49,0,0,0,.98,0,5.184,5.184,0,0,1,8.338-4.1A8.571,8.571,0,0,0,7.06,44.65a.49.49,0,1,0,.98,0,7.633,7.633,0,1,1,15.265,0,.49.49,0,0,0,.978,0,8.571,8.571,0,0,0-2.258-5.806,5.184,5.184,0,0,1,8.341,4.1.49.49,0,0,0,.98,0A6.174,6.174,0,0,0,27.224,37.142ZM3.512,34.132a2.652,2.652,0,1,1,2.652,2.659,2.652,2.652,0,0,1-2.652-2.659Zm8.155-2.111a4.011,4.011,0,1,1,0,.01ZM22.53,34.132a2.652,2.652,0,1,1,2.652,2.652A2.652,2.652,0,0,1,22.53,34.132Z" transform="translate(0.5 -26.541)" fill="#356083" stroke="#356083" stroke-width="1"/>
</svg>
