<svg id="call" xmlns="http://www.w3.org/2000/svg" width="28.495" height="25.583" viewBox="0 0 28.495 25.583">
  <path id="Path_10677" data-name="Path 10677" d="M22.257,40.055,18.418,37a1.737,1.737,0,0,0-1.26-.36,1.719,1.719,0,0,0-1.14.66l-.54.72h-.06L9.511,32.137v-.06l.72-.54a1.719,1.719,0,0,0,.66-1.14,1.612,1.612,0,0,0-.36-1.26L7.5,25.3a1.682,1.682,0,0,0-1.14-.63,1.737,1.737,0,0,0-1.26.36,13.477,13.477,0,0,0-1.17,1.08c-3.659,3.689.33,9.207,4.319,13.2,2.969,2.969,5.608,4.8,7.828,5.459a7.255,7.255,0,0,0,1.859.3,4.689,4.689,0,0,0,3.449-1.44,13.834,13.834,0,0,0,1.11-1.2,1.806,1.806,0,0,0,.36-1.23A1.491,1.491,0,0,0,22.257,40.055Zm-.69,1.56c-.3.36-.66.72-1.02,1.11h0a3.853,3.853,0,0,1-4.079.84c-2.039-.6-4.5-2.339-7.318-5.129-3.569-3.569-7.228-8.458-4.319-11.4a10.784,10.784,0,0,1,1.08-.99.484.484,0,0,1,.27-.09h.06a.416.416,0,0,1,.3.15l3,3.809a.6.6,0,0,1,.09.33.365.365,0,0,1-.18.3l-.69.51a1.333,1.333,0,0,0-.51.96,1.291,1.291,0,0,0,.39,1.02l5.908,5.908a1.4,1.4,0,0,0,1.02.39,1.333,1.333,0,0,0,.96-.51l.54-.72a.51.51,0,0,1,.3-.18.429.429,0,0,1,.33.09l3.839,3.029a.369.369,0,0,1,.15.3A1.065,1.065,0,0,1,21.567,41.615Z" transform="translate(-2.49 -19.481)" fill="#333"/>
  <path id="Path_10678" data-name="Path 10678" d="M54.326,7.4h-12.6A2.419,2.419,0,0,0,39.3,9.829v6.658a2.419,2.419,0,0,0,2.429,2.429H42V20.9a1.537,1.537,0,0,0,.93,1.41,1.3,1.3,0,0,0,.57.12,1.522,1.522,0,0,0,1.08-.45l3.029-3.089h6.718a2.419,2.419,0,0,0,2.429-2.429V9.8A2.413,2.413,0,0,0,54.326,7.4Zm1.17,9.058a1.171,1.171,0,0,1-1.17,1.17H47.338a.61.61,0,0,0-.45.18l-3.209,3.239a.242.242,0,0,1-.42-.18V18.257a.615.615,0,0,0-.63-.63h-.9a1.171,1.171,0,0,1-1.17-1.17V9.8a1.171,1.171,0,0,1,1.17-1.17h12.6A1.171,1.171,0,0,1,55.5,9.8Z" transform="translate(-28.26 -7.4)" fill="#333"/>
  <circle id="Ellipse_1197" data-name="Ellipse 1197" cx="1.2" cy="1.2" r="1.2" transform="translate(14.729 4.529)" fill="#333"/>
  <circle id="Ellipse_1198" data-name="Ellipse 1198" cx="1.2" cy="1.2" r="1.2" transform="translate(18.568 4.529)" fill="#333"/>
  <circle id="Ellipse_1199" data-name="Ellipse 1199" cx="1.2" cy="1.2" r="1.2" transform="translate(22.407 4.529)" fill="#333"/>
</svg>
