<svg xmlns="http://www.w3.org/2000/svg" width="27.956" height="22" viewBox="0 0 27.956 22"><defs><style>.a{fill:#333;}</style></defs><g transform="translate(19.405 15.481)"><path class="a" d="M358.509,356.052a2.522,2.522,0,0,1-1.707-.71.619.619,0,0,1,0-.886.647.647,0,0,1,.9,0h0a1.515,1.515,0,0,0,.539.3.922.922,0,0,0,.984-.3.884.884,0,0,0,.31-.966,1.473,1.473,0,0,0-.314-.533.617.617,0,0,1,0-.884.649.649,0,0,1,.9,0,2.218,2.218,0,0,1,0,3.268A2.276,2.276,0,0,1,358.509,356.052Z" transform="translate(-356.615 -351.889)"/></g><g transform="translate(15.766 16.672)"><path class="a" d="M301.51,375.064a2.523,2.523,0,0,1-1.708-.711.619.619,0,0,1,0-.886.647.647,0,0,1,.9,0h0a1.517,1.517,0,0,0,.539.305.922.922,0,0,0,.984-.3.884.884,0,0,0,.31-.966,1.475,1.475,0,0,0-.314-.533.617.617,0,0,1,0-.885.649.649,0,0,1,.9,0,2.218,2.218,0,0,1,0,3.268A2.276,2.276,0,0,1,301.51,375.064Z" transform="translate(-299.615 -370.901)"/></g><g transform="translate(8.489 16.146)"><path class="a" d="M191.16,368.356a2.657,2.657,0,0,1-1.712-.666l-.02-.019-1.213-1.191a.619.619,0,0,1,0-.886h0a1.478,1.478,0,0,0,.31-.529.884.884,0,0,0-.31-.966.922.922,0,0,0-.984-.3,1.512,1.512,0,0,0-.543.308.644.644,0,0,1-.9,0,.621.621,0,0,1,0-.888,2.316,2.316,0,0,1,3.328,0,2.155,2.155,0,0,1,.39,2.765l.808.794a1.676,1.676,0,0,0,.563.3.932.932,0,0,0,.975-.281.9.9,0,0,0,.277-.987,1.648,1.648,0,0,0-.3-.529.619.619,0,0,1,.04-.886.647.647,0,0,1,.9.039,2.278,2.278,0,0,1-.019,3.248A2.234,2.234,0,0,1,191.16,368.356Z" transform="translate(-185.601 -362.501)"/></g><g transform="translate(7.951 16.672)"><path class="a" d="M179.52,375.066a2.276,2.276,0,0,1-1.621-.71,2.124,2.124,0,0,1-.609-2.279,2.714,2.714,0,0,1,.609-.989.647.647,0,0,1,.9,0,.619.619,0,0,1,0,.886h0a1.479,1.479,0,0,0-.31.529.884.884,0,0,0,.31.966.922.922,0,0,0,.984.3,1.515,1.515,0,0,0,.543-.308.644.644,0,0,1,.9,0,.621.621,0,0,1,0,.888A2.522,2.522,0,0,1,179.52,375.066Z" transform="translate(-177.172 -370.904)"/></g><g transform="translate(6.063)"><path class="a" d="M165.276,122.167a2.522,2.522,0,0,1-1.707-.71.619.619,0,0,1,0-.886.647.647,0,0,1,.9,0,1.512,1.512,0,0,0,.542.308.922.922,0,0,0,.984-.3.884.884,0,0,0,.31-.966,1.476,1.476,0,0,0-.314-.533l-1.2-1.177-.02-.02-5.867-5.761h-4.322l-1.026,1.007c-1.251,1.229-2.38,1.725-3.45,1.517a4.738,4.738,0,0,1-2.3-1.517.619.619,0,0,1,0-.889c.012-.012,1.245-1.21,3.642-3.564,2.316-2.274,7.351-1.649,8.719-1.429l2.19-2.151a.647.647,0,0,1,.9,0l6.064,5.954a.619.619,0,0,1,0,.886L167,114.207l-1.04,3.065.934.917a2.715,2.715,0,0,1,.609.989,2.123,2.123,0,0,1-.609,2.279A2.276,2.276,0,0,1,165.276,122.167Zm-10.958-11.307h4.851a.645.645,0,0,1,.451.184l5.334,5.237.886-2.611a.624.624,0,0,1,.154-.245l1.974-1.939-5.161-5.068-1.974,1.939a.646.646,0,0,1-.576.171c-.057-.011-5.753-1.09-7.908,1.026-1.559,1.531-2.626,2.574-3.186,3.12a2.659,2.659,0,0,0,1.191.734c.62.12,1.372-.264,2.3-1.174l1.213-1.191A.645.645,0,0,1,154.318,110.859Z" transform="translate(-147.616 -104.905)"/></g><g transform="translate(1.888 10.191)"><path class="a" d="M84.559,274.572a2.276,2.276,0,0,1-1.621-.71,2.219,2.219,0,0,1,0-3.268l2.426-2.382a2.316,2.316,0,0,1,3.328,0,2.218,2.218,0,0,1,0,3.268.647.647,0,0,1-.9,0,.619.619,0,0,1,0-.886h0a1.477,1.477,0,0,0,.31-.529.884.884,0,0,0-.31-.966.922.922,0,0,0-.984-.3,1.513,1.513,0,0,0-.543.308L83.84,271.48h0a1.478,1.478,0,0,0-.31.529.885.885,0,0,0,.31.966.922.922,0,0,0,.984.3,1.513,1.513,0,0,0,.543-.308.644.644,0,0,1,.9,0,.621.621,0,0,1,0,.888A2.522,2.522,0,0,1,84.559,274.572Z" transform="translate(-82.214 -267.502)"/></g><g transform="translate(4.312 12.571)"><path class="a" d="M122.518,312.535a2.3,2.3,0,0,1-1.619-.713,2.123,2.123,0,0,1-.609-2.279,2.713,2.713,0,0,1,.609-.989l2.425-2.382a2.62,2.62,0,0,1,1.709-.713,2.3,2.3,0,0,1,1.619.713,2.218,2.218,0,0,1,0,3.268l-2.426,2.382A2.62,2.62,0,0,1,122.518,312.535Zm-.717-3.095a1.479,1.479,0,0,0-.31.529.884.884,0,0,0,.31.966,1.023,1.023,0,0,0,.717.346,1.379,1.379,0,0,0,.806-.346l2.426-2.382h0a1.478,1.478,0,0,0,.31-.529.884.884,0,0,0-.31-.966,1.022,1.022,0,0,0-.716-.346,1.38,1.38,0,0,0-.806.346L121.8,309.44Z" transform="translate(-120.172 -305.459)"/></g><g transform="translate(13.342 16.673)"><path class="a" d="M264.691,374.55a.643.643,0,0,1-.451-.184l-2.425-2.381a.619.619,0,0,1,0-.886.647.647,0,0,1,.9,0l2.425,2.381a.619.619,0,0,1,0,.886A.643.643,0,0,1,264.691,374.55Z" transform="translate(-261.628 -370.916)"/></g><g transform="translate(15.766 14.29)"><path class="a" d="M303.892,337.73a.642.642,0,0,1-.451-.184l-3.638-3.573a.619.619,0,0,1,0-.886.647.647,0,0,1,.9,0l3.638,3.573a.619.619,0,0,1,0,.886A.642.642,0,0,1,303.892,337.73Z" transform="translate(-299.615 -332.903)"/></g><g transform="translate(18.192 11.91)"><path class="a" d="M341.9,299.741a.643.643,0,0,1-.451-.184l-3.637-3.572a.619.619,0,0,1,0-.886.646.646,0,0,1,.9,0l3.638,3.572a.619.619,0,0,1,0,.886A.643.643,0,0,1,341.9,299.741Z" transform="translate(-337.628 -294.916)"/></g><path class="a" d="M56.893,118.067a.638.638,0,0,1-.605-.429l-1.165-3.432L52.8,111.929a.619.619,0,0,1,0-.887l6.07-5.954a.647.647,0,0,1,.9,0l2.19,2.151a18.978,18.978,0,0,1,4.68-.176.627.627,0,1,1-.134,1.247,18.036,18.036,0,0,0-4.636.219.646.646,0,0,1-.577-.171l-1.974-1.939-5.167,5.068,1.974,1.938a.626.626,0,0,1,.154.245l1.213,3.573a.624.624,0,0,1-.4.793A.644.644,0,0,1,56.893,118.067Z" transform="translate(-52.617 -104.904)"/></svg>