<svg xmlns="http://www.w3.org/2000/svg" width="25.904" height="26.493" viewBox="0 0 25.904 26.493"><defs><style>.a{fill:none;stroke:#333;stroke-width:1.5px;}</style></defs><path class="a" d="M24.849,16.721a9.739,9.739,0,0,0,.087-1.225,9.739,9.739,0,0,0-.087-1.225l2.637-2.062a.63.63,0,0,0,.15-.8l-2.5-4.324a.628.628,0,0,0-.762-.275l-3.112,1.25a9.13,9.13,0,0,0-2.112-1.225l-.475-3.312A.609.609,0,0,0,18.064,3h-5a.609.609,0,0,0-.612.525l-.475,3.312A9.6,9.6,0,0,0,9.866,8.061L6.754,6.811a.61.61,0,0,0-.762.275l-2.5,4.324a.616.616,0,0,0,.15.8l2.637,2.062A9.911,9.911,0,0,0,6.192,15.5a9.911,9.911,0,0,0,.087,1.225L3.643,18.783a.63.63,0,0,0-.15.8l2.5,4.324a.628.628,0,0,0,.762.275l3.112-1.25a9.13,9.13,0,0,0,2.112,1.225l.475,3.312a.609.609,0,0,0,.612.525h5a.609.609,0,0,0,.612-.525l.475-3.312a9.6,9.6,0,0,0,2.112-1.225l3.112,1.25a.61.61,0,0,0,.762-.275l2.5-4.324a.63.63,0,0,0-.15-.8l-2.637-2.062Zm-9.285,3.149A4.374,4.374,0,1,1,19.938,15.5,4.379,4.379,0,0,1,15.564,19.871Z" transform="translate(-2.607 -2.25)"/></svg>