<svg xmlns="http://www.w3.org/2000/svg" width="14.974" height="13.823" viewBox="0 0 14.974 13.823">
  <g id="Group_2241" data-name="Group 2241" transform="translate(-335.957 -138.663)">
    <path id="Path_840" data-name="Path 840" d="M4.391,0A2.269,2.269,0,0,0,2.183,1.754H.521a.521.521,0,0,0,0,1.043H2.183A2.269,2.269,0,0,0,6.6,2.8h6.452a.521.521,0,0,0,0-1.043H6.6A2.269,2.269,0,0,0,4.391,0Zm0,3.508A1.227,1.227,0,1,1,5.618,2.282,1.227,1.227,0,0,1,4.391,3.508Z" transform="translate(336.082 152.361) rotate(-90)" fill="#fff" stroke="#fff" stroke-width="0.25"/>
    <path id="Path_10799" data-name="Path 10799" d="M4.391,0A2.269,2.269,0,0,0,2.183,1.754H.521a.521.521,0,0,0,0,1.043H2.183A2.269,2.269,0,0,0,6.6,2.8h6.452a.521.521,0,0,0,0-1.043H6.6A2.269,2.269,0,0,0,4.391,0Zm0,3.508A1.227,1.227,0,1,1,5.618,2.282,1.227,1.227,0,0,1,4.391,3.508Z" transform="translate(346.264 152.361) rotate(-90)" fill="#fff" stroke="#fff" stroke-width="0.25"/>
    <path id="Path_841" data-name="Path 841" d="M9.2,0A2.269,2.269,0,0,0,6.992,1.754H.521a.521.521,0,1,0,0,1.043H6.974a2.269,2.269,0,0,0,4.416,0h1.662a.521.521,0,0,0,0-1.043H11.389A2.269,2.269,0,0,0,9.2,0Zm0,3.5a1.227,1.227,0,1,1,1.227-1.227A1.227,1.227,0,0,1,9.2,3.5Z" transform="translate(341.173 152.361) rotate(-90)" fill="#fff" stroke="#fff" stroke-width="0.25"/>
  </g>
</svg>
