<svg xmlns="http://www.w3.org/2000/svg" width="24.792" height="24.737" viewBox="0 0 24.792 24.737">
  <g id="Layer_11" data-name="Layer 11" transform="translate(0.25 0.25)">
    <path id="Path_12330" data-name="Path 12330" d="M26.076,13.715l-3.3-3.359V3.731A1.731,1.731,0,0,0,21.044,2H18.736A1.731,1.731,0,0,0,17,3.731v.762L15.112,2.566a1.754,1.754,0,0,0-2.066.069L3.431,12.387h0L2.162,13.68a.579.579,0,0,0,.831.808l.231-.242v10.26a1.731,1.731,0,0,0,1.731,1.731H23.283a1.731,1.731,0,0,0,1.731-1.731V14.28l.231.242a.579.579,0,0,0,.831-.808ZM18.159,3.731a.577.577,0,0,1,.577-.577h2.308a.577.577,0,0,1,.577.577V9.19L18.159,5.67ZM11.234,25.083V18.735a.577.577,0,0,1,.577-.577h4.617a.577.577,0,0,1,.577.577v6.348Zm12.626-.577a.577.577,0,0,1-.577.577H18.159V18.735A1.731,1.731,0,0,0,16.427,17H11.811a1.731,1.731,0,0,0-1.731,1.731v6.348H4.955a.577.577,0,0,1-.577-.577V13.1l9.406-9.591a.623.623,0,0,1,.589-.069l9.487,9.672Z" transform="translate(-1.998 -2)" fill="#869658" stroke="#869658" stroke-miterlimit="10" stroke-width="0.5"/>
  </g>
</svg>
