<svg xmlns="http://www.w3.org/2000/svg" width="28.357" height="25.583" viewBox="0 0 28.357 25.583">
  <path id="chat" d="M7.81,22.818A6.242,6.242,0,0,1,7.576,25.1a1.357,1.357,0,0,0,1.91,1.6,10.378,10.378,0,0,0,4.248-3.692h.9a8.614,8.614,0,1,0,0-17.229H9.616a8.614,8.614,0,0,0-1.8,17.038Zm1.8-15.591h5.029a7.167,7.167,0,1,1,0,14.335H13.323a.723.723,0,0,0-.639.388A8.663,8.663,0,0,1,9.02,25.315a7.83,7.83,0,0,0,.165-3.221.723.723,0,0,0-.611-.608A7.167,7.167,0,0,1,9.616,7.23ZM29.359,23.619A5.5,5.5,0,0,1,25.267,28.9a3.415,3.415,0,0,0,.139,1.053,1.1,1.1,0,0,1-1.545,1.3,6.67,6.67,0,0,1-2.581-2.182H20.9a5.446,5.446,0,0,1-5.171-3.724.723.723,0,1,1,1.372-.457,4,4,0,0,0,3.8,2.737h.79a.723.723,0,0,1,.642.385,4.407,4.407,0,0,0,1.534,1.58,5.1,5.1,0,0,1,.023-1.4.723.723,0,0,1,.611-.608,4,4,0,0,0-.014-7.926.73.73,0,0,1,.2-1.447,5.475,5.475,0,0,1,4.676,5.411ZM7.125,11.631a.723.723,0,0,1,.723-.723H16.41a.723.723,0,1,1,0,1.447H7.848a.723.723,0,0,1-.723-.723Zm0,2.749a.723.723,0,0,1,.723-.723H16.41a.723.723,0,1,1,0,1.447H7.848a.723.723,0,0,1-.723-.709Zm0,2.749a.723.723,0,0,1,.723-.723H13.71a.723.723,0,0,1,0,1.447H7.848a.723.723,0,0,1-.723-.709Z" transform="translate(-1.002 -5.78)" fill="#333"/>
</svg>
