<svg xmlns="http://www.w3.org/2000/svg" width="25.124" height="25.583" viewBox="0 0 25.124 25.583">
  <g id="profile" transform="translate(-7.68 -5.81)">
    <path id="Path_10844" data-name="Path 10844" d="M31.433,59.716h-3.42a.513.513,0,1,1,0-1.026h3.42a.513.513,0,1,1,0,1.026Z" transform="translate(-17.129 -45.7)" fill="#333"/>
    <path id="Path_10845" data-name="Path 10845" d="M29.894,83.656H28.013a.513.513,0,1,1,0-1.026h1.881a.513.513,0,1,1,0,1.026Z" transform="translate(-17.129 -66.39)" fill="#333"/>
    <path id="Path_10846" data-name="Path 10846" d="M30.407,109.436H28.013a.513.513,0,0,1,0-1.026h2.394a.513.513,0,0,1,0,1.026Z" transform="translate(-17.129 -88.669)" fill="#333"/>
    <path id="Path_10847" data-name="Path 10847" d="M31.6,135.216H28.013a.513.513,0,0,1,0-1.026H31.6a.513.513,0,0,1,0,1.026Z" transform="translate(-17.129 -110.949)" fill="#333"/>
    <path id="Path_10848" data-name="Path 10848" d="M39.531,161H28.013a.513.513,0,0,1,0-1.026H39.531a.513.513,0,0,1,0,1.026Z" transform="translate(-17.129 -133.229)" fill="#333"/>
    <path id="Path_10849" data-name="Path 10849" d="M32.565,27.754l-5.639-4.49A7.029,7.029,0,0,0,26.235,13V10.327a2.424,2.424,0,0,0-2.421-2.421H20.366V7.23a1.421,1.421,0,0,0-1.42-1.42H14.97a1.421,1.421,0,0,0-1.42,1.42v.676H10.1A2.424,2.424,0,0,0,7.68,10.327V28.972A2.424,2.424,0,0,0,10.1,31.393H23.813a2.424,2.424,0,0,0,2.421-2.421V24.335l5.54,4.411a.635.635,0,0,0,.892-.1A.636.636,0,0,0,32.565,27.754ZM14.922,9.192V7.23a.049.049,0,0,1,.049-.049h3.974a.049.049,0,0,1,.049.049V9.314a.049.049,0,0,1-.049.049H14.97a.049.049,0,0,1-.049-.049V9.192Zm10.026,19.78a1.136,1.136,0,0,1-1.135,1.135H10.1a1.136,1.136,0,0,1-1.135-1.135V10.327A1.136,1.136,0,0,1,10.1,9.192H13.55v.122a1.421,1.421,0,0,0,1.42,1.42h3.974a1.421,1.421,0,0,0,1.42-1.42V9.192h3.449a1.136,1.136,0,0,1,1.135,1.135v1.834a7.046,7.046,0,1,0-3.17,13.34,7.207,7.207,0,0,0,.8-.045,7.036,7.036,0,0,0,2.372-.706v4.221Zm.684-6.214a.6.6,0,0,0-.144.121,6.094,6.094,0,0,1-.539.407,5.727,5.727,0,0,1-2.515.91,5.79,5.79,0,1,1,3.8-2.065A5.846,5.846,0,0,1,25.632,22.758Z" fill="#333"/>
    <g id="Group_2349" data-name="Group 2349" transform="translate(19.626 15.343)">
      <path id="Path_10850" data-name="Path 10850" d="M97.84,101.745c-.55,0-1.1,0-1.65,0-.464,0-.6-.172-.492-.614.084-.341.17-.682.266-1.02a1.272,1.272,0,0,1,1.252-.979q.609-.012,1.221,0a1.271,1.271,0,0,1,1.253.937c.106.346.187.7.274,1.052.111.451-.018.62-.477.625C98.938,101.748,98.388,101.745,97.84,101.745Z" transform="translate(-95.664 -95.988)" fill="#333"/>
      <path id="Path_10851" data-name="Path 10851" d="M104.177,77.413a1.4,1.4,0,1,1-1.4-1.393A1.439,1.439,0,0,1,104.177,77.413Z" transform="translate(-100.604 -76.02)" fill="#333"/>
    </g>
  </g>
</svg>
