<svg xmlns="http://www.w3.org/2000/svg" width="15.774" height="13.645" viewBox="0 0 15.774 13.645">
  <g id="reset" transform="translate(0.252 0.25)">
    <path id="Path_10648" data-name="Path 10648" d="M3.485,14.226l-.98-3.278a.334.334,0,0,1,.241-.434.334.334,0,0,1,.434.241l.787,2.619a6.561,6.561,0,0,1,12.374.209A.355.355,0,0,1,16,14.05a.363.363,0,0,1-.337-.241,5.845,5.845,0,0,0-11.072-.064l2.668-.8a.334.334,0,0,1,.434.241h0a.334.334,0,0,1-.241.434l-3.278.98A.543.543,0,0,1,3.485,14.226Z" transform="translate(-2.487 -9.1)" fill="#666" stroke="#707070" stroke-width="0.5"/>
    <path id="Path_10649" data-name="Path 10649" d="M24.359,60.4l-.787-2.619A6.561,6.561,0,0,1,11.2,57.574a.355.355,0,0,1,.337-.466.363.363,0,0,1,.337.241,5.845,5.845,0,0,0,11.072.064l-2.668.8a.334.334,0,0,1-.434-.241h0a.334.334,0,0,1,.241-.434l3.278-.98a.549.549,0,0,1,.691.37l.98,3.278a.334.334,0,0,1-.241.434A.34.34,0,0,1,24.359,60.4Z" transform="translate(-9.781 -48.912)" fill="#666" stroke="#707070" stroke-width="0.5"/>
  </g>
</svg>
