<svg xmlns="http://www.w3.org/2000/svg" width="22.068" height="22.068" viewBox="0 0 22.068 22.068">
  <g id="Group_2223" data-name="Group 2223" transform="translate(-337.25 -51.25)">
    <path id="Path_10390" data-name="Path 10390" d="M145.4,147.793a2.4,2.4,0,1,1,2.4-2.4A2.4,2.4,0,0,1,145.4,147.793Zm0-3.913a1.516,1.516,0,1,0,1.516,1.516A1.518,1.518,0,0,0,145.4,143.88Z" transform="translate(202.888 -83.112)" fill="#869658" stroke="#869658" stroke-width="0.5"/>
    <path id="Path_10391" data-name="Path 10391" d="M17.784,28.568a.525.525,0,0,1-.525-.525V25.758l-.363-.04a8,8,0,0,1-7.046-7.046l-.04-.363H7.525a.525.525,0,1,1,0-1.049H9.81l.04-.363A8,8,0,0,1,16.9,9.851l.363-.04V7.525a.525.525,0,1,1,1.049,0V9.81l.363.04A8,8,0,0,1,25.717,16.9l.04.363h2.286a.525.525,0,1,1,0,1.049H25.758l-.04.363a8,8,0,0,1-7.046,7.046l-.363.04v2.286A.525.525,0,0,1,17.784,28.568Zm0-17.721a6.937,6.937,0,1,0,6.937,6.937A6.945,6.945,0,0,0,17.784,10.847Z" transform="translate(330.5 44.5)" fill="#869658" stroke="#869658" stroke-width="0.5"/>
  </g>
</svg>
