<svg xmlns="http://www.w3.org/2000/svg" width="26.393" height="19.297" viewBox="0 0 26.393 19.297">
  <path id="download_3_" data-name="download (3)" d="M42.109,46.817H17.288a.788.788,0,0,1-.788-.788V28.3h0a.788.788,0,0,1,.063-.3.823.823,0,0,1,.173-.252l.032-.028a.784.784,0,0,1,.5-.2H42.113a.733.733,0,0,1,.3.059.788.788,0,0,1,.252.165.733.733,0,0,1,.173.26h0a.788.788,0,0,1,.059.3V46.037A.788.788,0,0,1,42.109,46.817ZM18.076,45.241H41.321V30.223L30.065,41.648a.843.843,0,0,1-.571.236.788.788,0,0,1-.563-.244L18.076,30.266Zm1.052-16.153L29.509,39.974,40.226,29.088Z" transform="translate(-16.5 -27.52)" fill="#fff"/>
</svg>
