<svg xmlns="http://www.w3.org/2000/svg" width="17.268" height="17.057" viewBox="0 0 17.268 17.057">
  <g id="website" transform="translate(-9.66 -8.056)">
    <path id="Path_2125" data-name="Path 2125" d="M14.354,17.53h3.436v6.636A10.011,10.011,0,0,1,14.354,17.53Zm-3.746,0h2.855a10.884,10.884,0,0,0,2.82,6.4,7.543,7.543,0,0,1-5.675-6.4Zm5.677-8.3a10.878,10.878,0,0,0-2.866,7.356c0,.018,0,.037,0,.056H10.55a7.555,7.555,0,0,1,5.735-7.412ZM17.789,9v7.642H14.307c0-.019,0-.038,0-.056A10,10,0,0,1,17.788,9Zm.444-.948-.038,0a8.583,8.583,0,0,0-7.388,4.262,8.494,8.494,0,0,0,0,8.529A8.584,8.584,0,0,0,18.2,25.112h.032a8.6,8.6,0,0,0,6.52-2.992.439.439,0,0,0-.034-.639.445.445,0,0,0-.64.067,7.693,7.693,0,0,1-3.945,2.441,10.9,10.9,0,0,0,1.721-2.426.444.444,0,0,0-.79-.405,10.042,10.042,0,0,1-2.389,3V17.53h.977a.442.442,0,1,0,0-.884h-.977V8.976a10.02,10.02,0,0,1,2.768,3.818.444.444,0,1,0,.822-.335,10.924,10.924,0,0,0-2.085-3.265,7.666,7.666,0,0,1,5.236,4.67.444.444,0,1,0,.829-.314A8.576,8.576,0,0,0,18.234,8.056Z" transform="translate(0)" fill="#333"/>
    <path id="Path_2126" data-name="Path 2126" d="M58.476,32.4a.28.28,0,0,1,.125.034l3.529,2.058-1.359.281a.441.441,0,0,0-.292.654l.974,1.681a.142.142,0,0,1-.055.206l-.649.372a.144.144,0,0,1-.208-.055l-.975-1.676a.444.444,0,0,0-.716-.075l-.919,1.025-.026-4.071a.43.43,0,0,1,.248-.339.014.014,0,0,0,.007,0,.039.039,0,0,0,.013-.007A.575.575,0,0,1,58.476,32.4Zm.049-.883a1.494,1.494,0,0,0-1.508,1.325l.026,4.089a1.007,1.007,0,0,0,.443.938.807.807,0,0,0,.956-.2l.662-.742.669,1.149a1.049,1.049,0,0,0,1.42.38l.649-.374a1.038,1.038,0,0,0,.381-1.412l-.669-1.152.984-.2a.8.8,0,0,0,.653-.722,1.008,1.008,0,0,0-.595-.85L59.05,31.672v0a1.045,1.045,0,0,0-.525-.157Z" transform="translate(-36.263 -17.964)" fill="#333"/>
  </g>
</svg>
