<svg xmlns="http://www.w3.org/2000/svg" width="24.93" height="25.635" viewBox="0 0 24.93 25.635">
  <g id="map1" transform="translate(-6.75 -5.75)">
    <path id="Path_10777" data-name="Path 10777" d="M31.021,19.553l-4.188-1.9a.7.7,0,1,0-.578,1.27l3.779,1.718V32.366l-6.282-2.855V22.98a.7.7,0,0,0-1.4,0v6.53l-6.282,2.855V23.678a.7.7,0,1,0-1.4,0v8.688L8.4,29.511V17.782l3.2,1.455a.7.7,0,1,0,.577-1.27l-4.188-1.9A.7.7,0,0,0,7,16.7V29.96a.7.7,0,0,0,.409.635l7.678,3.49c.01,0,.022,0,.032.007a.7.7,0,0,0,.255.056h0a.693.693,0,0,0,.256-.056c.01,0,.022,0,.032-.007l7.389-3.359,7.389,3.359a.7.7,0,0,0,.987-.635V20.188a.7.7,0,0,0-.409-.635Z" transform="translate(0 -3.02)" fill="#f3f4f6" stroke="#fff" stroke-width="0.5"/>
    <path id="Path_10778" data-name="Path 10778" d="M20.876,21.27a.7.7,0,0,0,.987,0,31.5,31.5,0,0,0,4.294-5.448,12.966,12.966,0,0,0,.786-1.545,5.868,5.868,0,0,0,.505-2.2,6.08,6.08,0,0,0-12.159,0c0,1.386.786,3.185,2.337,5.349a34.874,34.874,0,0,0,3.249,3.841ZM21.37,7.389a4.693,4.693,0,0,1,4.684,4.691,4.587,4.587,0,0,1-.4,1.66,11.74,11.74,0,0,1-.7,1.373,29.058,29.058,0,0,1-3.585,4.654,33.727,33.727,0,0,1-2.608-3.152c-1.358-1.894-2.075-3.462-2.075-4.535A4.693,4.693,0,0,1,21.37,7.389Z" transform="translate(-2.504)" fill="#f3f4f6" stroke="#fff" stroke-width="0.5"/>
    <path id="Path_10779" data-name="Path 10779" d="M22.792,16.584A2.792,2.792,0,1,0,20,13.792,2.792,2.792,0,0,0,22.792,16.584Zm0-4.188a1.4,1.4,0,1,1-1.4,1.4A1.4,1.4,0,0,1,22.792,12.4Z" transform="translate(-3.926 -1.51)" fill="#f3f4f6" stroke="#fff" stroke-width="0.5"/>
  </g>
</svg>
