<svg xmlns="http://www.w3.org/2000/svg" width="18.361" height="18.361" viewBox="0 0 18.361 18.361">
  <path id="search" d="M18.71,19.8A6.538,6.538,0,1,1,19.8,18.71l1.119,1.119a1.538,1.538,0,0,1,2.175,0l2.719,2.719a2.307,2.307,0,0,1,0,3.263h0a2.307,2.307,0,0,1-3.263,0L19.83,23.093a1.538,1.538,0,0,1,0-2.175Zm3.295,1.119-1.088,1.088,2.719,2.719a.769.769,0,0,0,1.088-1.088ZM11.128,11.128a5,5,0,1,1,0,7.07A5,5,0,0,1,11.128,11.128Z" transform="translate(-8.127 -8.127)" fill="#356083" fill-rule="evenodd"/>
</svg>
