<svg xmlns="http://www.w3.org/2000/svg" width="16.886" height="16.886" viewBox="0 0 16.886 16.886">
  <g id="Icon_feather-settings" data-name="Icon feather-settings" transform="translate(-1 -1)">
    <path id="Path_2180" data-name="Path 2180" d="M17.832,15.666A2.166,2.166,0,1,1,15.666,13.5,2.166,2.166,0,0,1,17.832,15.666Z" transform="translate(-6.223 -6.223)" fill="none" stroke="#333" stroke-linecap="round" stroke-linejoin="round" stroke-width="1"/>
    <path id="Path_2181" data-name="Path 2181" d="M14.786,11.609a1.191,1.191,0,0,0,.238,1.314l.043.043a1.445,1.445,0,1,1-2.043,2.043l-.043-.043a1.2,1.2,0,0,0-2.036.852v.123a1.444,1.444,0,1,1-2.888,0v-.065a1.191,1.191,0,0,0-.78-1.09,1.191,1.191,0,0,0-1.314.238l-.043.043a1.445,1.445,0,1,1-2.043-2.043l.043-.043a1.2,1.2,0,0,0-.852-2.036H2.944a1.444,1.444,0,1,1,0-2.888h.065a1.191,1.191,0,0,0,1.09-.78,1.191,1.191,0,0,0-.238-1.314l-.043-.043A1.445,1.445,0,1,1,5.861,3.876l.043.043a1.191,1.191,0,0,0,1.314.238h.058A1.191,1.191,0,0,0,8,3.067V2.944a1.444,1.444,0,0,1,2.888,0v.065a1.2,1.2,0,0,0,2.036.852l.043-.043A1.445,1.445,0,1,1,15.01,5.861l-.043.043a1.191,1.191,0,0,0-.238,1.314v.058A1.191,1.191,0,0,0,15.819,8h.123a1.444,1.444,0,0,1,0,2.888h-.065a1.191,1.191,0,0,0-1.09.722Z" fill="none" stroke="#333" stroke-linecap="round" stroke-linejoin="round" stroke-width="1"/>
  </g>
</svg>
