<svg xmlns="http://www.w3.org/2000/svg" width="22.113" height="22.113" viewBox="0 0 22.113 22.113"><defs><style>.a{fill:#d5d5d5;stroke:#fff;}</style></defs><path class="a" d="M14.557,4A5.278,5.278,0,1,1,9.278,9.278,5.278,5.278,0,0,1,14.557,4m0,2.639A2.639,2.639,0,1,0,17.2,9.278a2.639,2.639,0,0,0-2.639-2.639m0,9.237c3.523,0,10.557,1.755,10.557,5.278v3.959H4V21.155c0-3.523,7.033-5.278,10.557-5.278m0,2.507c-3.919,0-8.049,1.927-8.049,2.771v1.452h16.1V21.155C22.606,20.31,18.476,18.383,14.557,18.383Z" transform="translate(-3.5 -3.5)"/></svg>