<svg xmlns="http://www.w3.org/2000/svg" width="35.333" height="32" viewBox="0 0 35.333 32"><defs><style>.a{fill:#b0b5b9;stroke:#fff;stroke-width:2px;}</style></defs><path class="a" d="M32,5.333H26.717L23.667,2h-10l-3.05,3.333H5.333A3.333,3.333,0,0,0,2,8.667v20A3.333,3.333,0,0,0,5.333,32H32a3.333,3.333,0,0,0,3.333-3.333v-20A3.333,3.333,0,0,0,32,5.333m0,23.333H5.333v-20h6.75l3.05-3.333H22.2l3.05,3.333H32v20M18.667,10.333A8.333,8.333,0,1,0,27,18.667a8.333,8.333,0,0,0-8.333-8.333m0,13.333a5,5,0,1,1,5-5,5,5,0,0,1-5,5Z" transform="translate(-1 -1)"/></svg>