<svg xmlns="http://www.w3.org/2000/svg" width="14.866" height="14.866" viewBox="0 0 14.866 14.866"><defs><style>.a{fill:none;}.b,.c{stroke:none;}.c{fill:#333;}</style></defs><g class="a" transform="translate(-3.5 -3.5)"><path class="b" d="M7.087,10.068a10.828,10.828,0,0,0,4.71,4.71l1.573-1.573a.711.711,0,0,1,.729-.172,8.153,8.153,0,0,0,2.552.407.717.717,0,0,1,.715.715v2.495a.717.717,0,0,1-.715.715A12.15,12.15,0,0,1,4.5,5.215.717.717,0,0,1,5.215,4.5h2.5a.717.717,0,0,1,.715.715,8.12,8.12,0,0,0,.407,2.552A.717.717,0,0,1,8.66,8.5Z"/><path class="c" d="M 5.214773178100586 4.500003814697266 C 4.821643829345703 4.500003814697266 4.500003814697266 4.821643829345703 4.500003814697266 5.214773178100586 C 4.500003814697266 11.926513671875 9.939443588256836 17.36596298217773 16.65118408203125 17.36596298217773 C 17.04431343078613 17.36596298217773 17.36596298217773 17.04431343078613 17.36596298217773 16.65118408203125 L 17.36596298217773 14.15662384033203 C 17.36596298217773 13.76349353790283 17.04431343078613 13.44184303283691 16.65118408203125 13.44184303283691 C 15.76487350463867 13.44184303283691 14.89999389648438 13.29889297485352 14.09943389892578 13.034423828125 C 14.02643203735352 13.00939178466797 13.95038795471191 12.99714279174805 13.87449645996094 12.99714279174805 C 13.69031524658203 12.99714374542236 13.50704002380371 13.0692892074585 13.37037372589111 13.20596313476563 L 11.7978630065918 14.77847290039063 C 9.775043487548828 13.74205303192139 8.116763114929199 12.09091377258301 7.087483406066895 10.0681037902832 L 8.659993171691895 8.495593070983887 C 8.860133171081543 8.295453071594238 8.917313575744629 8.016693115234375 8.838693618774414 7.766523361206055 C 8.574223518371582 6.965973854064941 8.431262969970703 6.108242988586426 8.431262969970703 5.214773178100586 C 8.431262969970703 4.821643829345703 8.109613418579102 4.500003814697266 7.716493606567383 4.500003814697266 L 5.214773178100586 4.500003814697266 M 5.214773178100586 3.500003814697266 L 7.716493606567383 3.500003814697266 C 8.662023544311523 3.500003814697266 9.431262969970703 4.269243240356445 9.431262969970703 5.214773178100586 C 9.431262969970703 5.98287296295166 9.551362991333008 6.73586368560791 9.788223266601563 7.45283317565918 L 9.79050350189209 7.459763526916504 L 9.792693138122559 7.466712951660156 C 9.985963821411133 8.081723213195801 9.822893142700195 8.746912956237793 9.367103576660156 9.202703475952148 L 8.328309059143066 10.24149703979492 C 9.140371322631836 11.57679557800293 10.28121089935303 12.71688938140869 11.62556457519531 13.53655242919922 L 12.66326332092285 12.49885368347168 C 12.9821138381958 12.18001365661621 13.42358303070068 11.99714374542236 13.87449359893799 11.99714374542236 C 14.05976295471191 11.99714374542236 14.24220085144043 12.02707767486572 14.41686820983887 12.08613300323486 C 15.1326961517334 12.3221607208252 15.88443279266357 12.44184303283691 16.65118408203125 12.44184303283691 C 17.59671401977539 12.44184303283691 18.36596298217773 13.21109294891357 18.36596298217773 14.15662384033203 L 18.36596298217773 16.65118408203125 C 18.36596298217773 17.59671401977539 17.59671401977539 18.36596298217773 16.65118408203125 18.36596298217773 C 13.13797378540039 18.36596298217773 9.83531379699707 16.99811363220215 7.351583480834961 14.51437377929688 C 4.867853164672852 12.03064346313477 3.500003814697266 8.727983474731445 3.500003814697266 5.214773178100586 C 3.500003814697266 4.269243240356445 4.269243240356445 3.500003814697266 5.214773178100586 3.500003814697266 Z"/></g></svg>