<svg xmlns="http://www.w3.org/2000/svg" width="18.427" height="24.029" viewBox="0 0 18.427 24.029"><defs><style>.a{fill:#d5d5d5;stroke:#fff;stroke-width:0.5px;}</style></defs><path class="a" d="M12.964,18.927A2.241,2.241,0,1,1,15.2,16.686a2.24,2.24,0,0,1-2.241,2.241m6.723,3.361v-11.2H6.241v11.2H19.686m0-13.445a2.241,2.241,0,0,1,2.241,2.241v11.2a2.241,2.241,0,0,1-2.241,2.241H6.241A2.24,2.24,0,0,1,4,22.288v-11.2A2.233,2.233,0,0,1,6.241,8.843h1.12V6.6a5.6,5.6,0,0,1,11.2,0V8.843h1.12m-6.723-5.6A3.361,3.361,0,0,0,9.6,6.6V8.843h6.723V6.6A3.361,3.361,0,0,0,12.964,3.241Z" transform="translate(-3.75 -0.75)"/></svg>