<svg xmlns="http://www.w3.org/2000/svg" width="15.247" height="15.061" viewBox="0 0 15.247 15.061"><defs><style>.a{fill:#333;}</style></defs><g transform="translate(-9.66 -8.056)"><path class="a" d="M13.8,16.421h3.034v5.86A8.839,8.839,0,0,1,13.8,16.421Zm-3.308,0h2.521a9.611,9.611,0,0,0,2.49,5.655A6.66,6.66,0,0,1,10.5,16.421ZM15.509,9.1a9.605,9.605,0,0,0-2.531,6.5c0,.016,0,.032,0,.049H10.446A6.671,6.671,0,0,1,15.51,9.1Zm1.329-.2v6.748H13.763c0-.017,0-.033,0-.049a8.831,8.831,0,0,1,3.074-6.7Zm.392-.837-.034,0a7.578,7.578,0,0,0-6.523,3.763,7.5,7.5,0,0,0,0,7.531A7.58,7.58,0,0,0,17.2,23.116h.028a7.589,7.589,0,0,0,5.757-2.642.388.388,0,0,0-.03-.565.393.393,0,0,0-.565.059,6.793,6.793,0,0,1-3.483,2.155,9.628,9.628,0,0,0,1.52-2.142.392.392,0,0,0-.7-.358,8.867,8.867,0,0,1-2.11,2.652V16.421h.863a.39.39,0,1,0,0-.78h-.863V8.869a8.847,8.847,0,0,1,2.444,3.371.392.392,0,1,0,.726-.3A9.646,9.646,0,0,0,18.95,9.061a6.769,6.769,0,0,1,4.623,4.124.392.392,0,1,0,.732-.277A7.573,7.573,0,0,0,17.23,8.056Z" transform="translate(0)"/><path class="a" d="M58.305,32.3a.247.247,0,0,1,.11.03l3.116,1.818-1.2.248a.39.39,0,0,0-.258.578l.86,1.484a.126.126,0,0,1-.048.182l-.573.328a.127.127,0,0,1-.183-.049l-.861-1.48a.392.392,0,0,0-.632-.066l-.812.9L57.8,32.68a.379.379,0,0,1,.219-.3.012.012,0,0,0,.006,0,.034.034,0,0,0,.012-.006A.508.508,0,0,1,58.305,32.3Zm.043-.78a1.32,1.32,0,0,0-1.332,1.17L57.04,36.3a.889.889,0,0,0,.392.829.713.713,0,0,0,.844-.179l.585-.655.59,1.015a.926.926,0,0,0,1.254.335l.573-.33a.916.916,0,0,0,.336-1.247l-.591-1.017.869-.179a.7.7,0,0,0,.577-.637.89.89,0,0,0-.525-.75l-3.131-1.827v0a.923.923,0,0,0-.463-.139Z" transform="translate(-37.561 -18.607)"/></g></svg>